<?xml version="1.0" encoding="utf-8" standalone="yes"?>
<!DOCTYPE svg PUBLIC "-//W3C//DTD SVG 1.1//EN" "http://www.w3.org/Graphics/SVG/1.1/DTD/svg11.dtd">
<svg width="672" height="642" viewBox="0 0 672 642" style="fill:none;stroke:none;fill-rule:evenodd;clip-rule:evenodd;stroke-linecap:round;stroke-linejoin:round;stroke-miterlimit:1.5;" version="1.1" xmlns="http://www.w3.org/2000/svg" xmlns:xlink="http://www.w3.org/1999/xlink"><style class="text-font-style fontImports" data-font-family="Roboto">@import url('https://fonts.googleapis.com/css2?family=Roboto:wght@400;700&amp;display=block');</style><g id="items" style="isolation: isolate"><g id="blend" style="mix-blend-mode: normal"><g id="g-root-cp_0_g-0_8zmqxh136bkzw-fill" data-item-order="999659306" transform="translate(240, 99)"><g id="cp_0_g-0_8zmqxh136bkzw-fill" stroke="none" fill="#e8e8e8"><g><path d="M 182 96L 182 140.61C 173.29 132.9 163.55 126.35 153 121.19L 153 97.06C 153 64.21 125.72 37.33 92.92 39.08C 62.92 40.69 39 65.6 39 96L 39 121.19C 28.45 126.35 18.71 132.9 10 140.61L 10 96C 10 48.5 48.5 10 96 10C 119.75 10 141.25 19.62 156.81 35.19C 172.38 50.75 182 72.25 182 96Z"></path></g></g><g id="cp_0_g-0_8zmqxh136bkzw-fill" stroke="none" fill="#e8e8e8"><g><path d="M 167 238C 167 277.2122 135.2122 309 96 309C 56.7878 309 25 277.2122 25 238C 25 198.7878 56.7878 167 96 167C 135.2122 167 167 198.7878 167 238Z"></path></g></g><g id="cp_0_g-0_8zmqxh136bkzw-fill" stroke="none" fill="#e8e8e8"><g><path d="M 156.399609 122.91L 128.989609 175.14C 119.129609 169.95 107.909609 167 95.999609 167C 84.089609 167 72.869609 169.95 63.009609 175.14L 35.599609 122.91C 53.659609 113.4 74.209609 108 95.999609 108C 117.789609 108 138.339609 113.4 156.399609 122.91Z"></path></g></g></g><g id="g-root-cp_1_g-1_dfg91x136bkzn-fill" data-item-order="999659310" transform="translate(358.989990234375, 211.909912109375)"><g id="cp_1_g-1_dfg91x136bkzn-fill" stroke="none" fill="#1ac3fb"><g><path d="M 83.95 51.27L 35.43 84.76C 28.92 75.35 20.19 67.59 10 62.23L 37.41 10C 56.05 19.83 72.03 34.04 83.95 51.27Z"></path></g></g></g><g id="g-root-cp_2_g-2_dfg91x136bkzs-fill" data-item-order="999659314" transform="translate(384.41998291015625, 253.179931640625)"><g id="cp_2_g-2_dfg91x136bkzs-fill" stroke="none" fill="#43dd93"><g><path d="M 80.63 68.15L 22.05 75.26C 20.64 63.56 16.39 52.73 10 43.49L 58.52 10C 70.24 26.92 78.05 46.74 80.63 68.15Z"></path></g></g></g><g id="g-root-cp_3_g-3_hv9r6d136bkzl-fill" data-item-order="999659318" transform="translate(392.3900146484375, 311.330078125)"><g id="cp_3_g-3_hv9r6d136bkzl-fill" stroke="none" fill="#a6da37"><g><path d="M 73.61 25.67C 73.61 41.9 70.61 57.43 65.16 71.77L 10 50.85C 12.97 43.02 14.61 34.54 14.61 25.67C 14.61 22.77 14.42 19.92 14.08 17.11L 72.66 10C 73.28 15.14 73.61 20.37 73.61 25.67Z"></path></g></g></g><g id="g-root-cp_4_g-4_8zmqxh136blse-fill" data-item-order="999659322" transform="translate(373.07000732421875, 352.179931640625)"><g id="cp_4_g-4_8zmqxh136blse-fill" stroke="none" fill="#ffe711"><g><path d="M 84.48 30.92C 76.94 50.73 64.68 68.24 49.09 82.07L 10 37.95C 18.52 30.4 25.21 20.83 29.32 10L 84.48 30.92Z"></path></g></g></g><g id="g-root-cp_5_g-5_dfg91x136bls3-fill" data-item-order="999659326" transform="translate(342.989990234375, 380.131103515625)"><g id="cp_5_g-5_dfg91x136bls3-fill" stroke="none" fill="#f79438"><g><path d="M 79.17 54.12C 63.67 67.87 44.87 77.98 24.12 83.1L 10 25.81C 21.35 23.02 31.62 17.51 40.08 10L 79.17 54.12Z"></path></g></g></g><g id="g-root-cp_6_g-6_dfg91x136bls4-fill" data-item-order="999659330" transform="translate(294.8900146484375, 395.93896484375)"><g id="cp_6_g-6_dfg91x136bls4-fill" stroke="none" fill="#fb6762"><g><path d="M 72.22 67.29C 62.25 69.75 51.83 71.06 41.11 71.06C 30.39 71.06 19.97 69.75 10 67.29L 24.12 10C 29.56 11.34 35.25 12.06 41.11 12.06C 46.97 12.06 52.66 11.34 58.1 10L 72.22 67.29Z"></path></g></g></g><g id="g-root-cp_7_g-7_dfg91x136bls2-fill" data-item-order="999659334" transform="translate(239.83999633789062, 380.131103515625)"><g id="cp_7_g-7_dfg91x136bls2-fill" stroke="none" fill="#f366bb"><g><path d="M 79.17 25.81L 65.05 83.1C 44.3 77.98 25.5 67.87 10 54.12L 49.09 10C 57.55 17.51 67.82 23.02 79.17 25.81Z"></path></g></g></g><g id="g-root-cp_8_g-8_8zmqxh136blsd-fill" data-item-order="999659338" transform="translate(204.45001220703125, 352.179931640625)"><g id="cp_8_g-8_8zmqxh136blsd-fill" stroke="none" fill="#8769fd"><g><path d="M 84.48 37.95L 45.39 82.07C 29.8 68.24 17.54 50.73 10 30.92L 65.16 10C 69.27 20.83 75.96 30.4 84.48 37.95Z"></path></g></g></g><g id="g-root-cp_9_g-9_hv9r6d136bkzk-fill" data-item-order="999659342" transform="translate(196, 311.330078125)"><g id="cp_9_g-9_hv9r6d136bkzk-fill" stroke="none" fill="#cb68f9"><g><path d="M 73.61 50.85L 18.45 71.77C 13 57.43 10 41.9 10 25.67C 10 20.37 10.33 15.14 10.95 10L 69.53 17.11C 69.19 19.92 69 22.77 69 25.67C 69 34.54 70.64 43.02 73.61 50.85Z"></path></g></g></g><g id="g-root-cp_10_g-10_dfg91x136bkzr-fill" data-item-order="999659346" transform="translate(196.95001220703125, 253.179931640625)"><g id="cp_10_g-10_dfg91x136bkzr-fill" stroke="none" fill="#b7b7b7"><g><path d="M 80.63 43.49C 74.24 52.73 69.99 63.56 68.58 75.26L 10 68.15C 12.58 46.74 20.39 26.92 32.11 10L 80.63 43.49Z"></path></g></g></g><g id="g-root-cp_11_g-11_dfg91x136bkzm-fill" data-item-order="999659350" transform="translate(219.05999755859375, 211.909912109375)"><g id="cp_11_g-11_dfg91x136bkzm-fill" stroke="none" fill="#4f91fc"><g><path d="M 83.95 62.23C 73.76 67.59 65.03 75.35 58.52 84.76L 10 51.27C 21.92 34.04 37.9 19.83 56.54 10L 83.95 62.23Z"></path></g></g></g><g id="g-root-ic_data_dfg91x136blse-fill" data-item-order="999998704" transform="translate(308, 482)"><g id="ic_data_dfg91x136blse-fill" stroke="none" fill="#fb6762"><g><path d="M 27.700001 32.695L 22.914999 32.695L 22.914999 28.84L 27.715 28.84C 27.91 27.82 29.215 26.92 31.24 26.289999L 31.24 22.75L 36.489998 22.75L 36.489998 25.434999L 37.779999 25.434999L 38.739998 25.434999L 38.739998 13.585C 38.740017 11.610903 37.144081 10.00826 35.170002 10L 13.585 10C 11.60506 10 10 11.60506 10 13.585L 10 31.375C 10.00826 33.349083 11.610903 34.945019 13.585 34.945L 27.700001 34.945ZM 31.24 16.645L 36.489998 16.645L 36.489998 20.5L 31.24 20.5ZM 22.914999 16.645L 28.99 16.645L 28.99 20.5L 22.914999 20.5ZM 22.914999 22.75L 28.99 22.75L 28.99 26.59L 22.914999 26.59ZM 20.665001 32.695L 13.585 32.695C 12.853518 32.695045 12.258219 32.106434 12.25 31.374998L 12.25 28.84L 20.665001 28.84ZM 20.665001 26.59L 12.25 26.59L 12.25 22.75L 20.665001 22.75ZM 20.665001 20.5L 12.25 20.5L 12.25 16.645L 20.665001 16.645ZM 37.735001 31C 40.440983 31.082932 43.143379 30.743868 45.744995 29.994999C 45.893883 29.944778 45.99567 29.807066 46 29.650002L 46 29.5C 45.999504 29.297298 45.918579 29.103081 45.775002 28.959999C 45.610001 28.795 43.885002 27.25 37.735001 27.25C 31.585001 27.25 29.860001 28.75 29.695 28.960001C 29.562359 29.107857 29.492428 29.30151 29.5 29.5L 29.5 29.664999C 29.497959 29.827595 29.600939 29.972979 29.755001 30.025002C 32.352436 30.741377 35.041489 31.069927 37.735001 31ZM 37.735001 38.5C 40.440983 38.582932 43.143379 38.24387 45.744995 37.494999C 45.893883 37.444778 45.99567 37.307064 46 37.150002L 46 31.974998C 45.997749 31.857508 45.942642 31.747293 45.849998 31.674999C 45.744606 31.629976 45.625393 31.629976 45.52 31.674999C 42.96711 32.261951 40.354431 32.548893 37.735001 32.529999C 35.115536 32.54958 32.502777 32.262627 29.949999 31.674999C 29.844608 31.629976 29.725393 31.629976 29.619999 31.674999C 29.527355 31.747293 29.472248 31.857508 29.469999 31.974998L 29.469999 37.150002C 29.467958 37.312595 29.570938 37.457977 29.724998 37.510002C 32.331333 38.234379 35.030731 38.568012 37.735001 38.5ZM 37.735001 40C 35.115536 40.019577 32.502777 39.732628 29.949999 39.145C 29.846476 39.091614 29.723522 39.091614 29.619999 39.144997C 29.527355 39.217293 29.472248 39.327507 29.469999 39.445L 29.469999 43.75C 29.469999 45.775002 35.244999 46 37.735001 46C 40.224998 46 46 45.775002 46 43.75L 46 39.489998C 45.997749 39.372505 45.942642 39.262295 45.849998 39.189999C 45.746475 39.136612 45.62352 39.136612 45.519997 39.189999C 42.965328 39.761818 40.352669 40.033653 37.735001 40Z"></path></g></g></g><g id="g-root-ic_spre_dfg91x136blsb-fill" data-item-order="999998704" transform="translate(380, 464)"><g id="ic_spre_dfg91x136blsb-fill" stroke="none" fill="#f79438"><g><path d="M 19.386999 17.65C 19.386999 16.827999 18.7075 16.15 17.886999 16.15L 11.587 16.15C 10.758573 16.15 10.087 15.478427 10.087 14.65C 10.087 13.821573 10.758573 13.15 11.587 13.15L 17.886999 13.15C 20.365 13.15 22.387001 15.172 22.387001 17.65L 22.387001 33.849998L 25.806999 33.849998L 25.806999 32.470001C 25.807129 31.863792 26.172131 31.317251 26.732037 31.084887C 27.291946 30.852524 27.936676 30.980017 28.366001 31.408001L 31.245998 34.287998C 31.531456 34.571339 31.690754 34.957714 31.687931 35.359905C 31.685108 35.762096 31.520405 36.146194 31.231001 36.425499L 28.366001 39.290501C 27.937008 39.71936 27.291946 39.847633 26.731518 39.615517C 26.171091 39.3834 25.80563 38.836594 25.8055 38.23L 25.8055 36.849998L 22.3855 36.849998L 22.3855 38.349998C 22.3855 40.827999 20.365 42.849998 17.8855 42.849998L 11.5855 42.849998C 10.757072 42.849998 10.0855 42.178425 10.0855 41.349998C 10.0855 40.521572 10.757072 39.849998 11.5855 39.849998L 11.8855 39.849998L 11.8855 34.150002L 11.5855 34.150002C 10.757072 34.150002 10.0855 33.478428 10.0855 32.650002C 10.0855 31.821573 10.757072 31.150002 11.5855 31.150002L 11.8855 31.150002L 11.8855 25.150002L 11.5855 25.150002C 10.757072 25.150002 10.0855 24.478428 10.0855 23.650002C 10.0855 22.821573 10.757072 22.150002 11.5855 22.150002L 19.3855 22.150002L 19.3855 17.65ZM 19.386999 38.349998L 19.386999 34.150002L 14.887 34.150002L 14.887 39.849998L 17.886999 39.849998C 18.7075 39.849998 19.386999 39.172001 19.386999 38.349998ZM 19.386999 31.150002L 14.887 31.150002L 14.887 25.150002L 19.386999 25.150002L 19.386999 31.150002ZM 36.614502 17.65C 36.614502 16.827999 37.2925 16.15 38.114502 16.15L 44.414501 16.15C 45.242928 16.15 45.914501 15.478427 45.914501 14.65C 45.914501 13.821573 45.242928 13.15 44.414501 13.15L 38.114502 13.15C 35.635002 13.15 33.614502 15.172 33.614502 17.65L 33.614502 19.15L 30.8515 19.15L 30.8515 17.77C 30.851978 17.163134 30.486738 16.61577 29.926174 16.38327C 29.365612 16.150768 28.720184 16.278944 28.291 16.708L 25.426001 19.573C 25.136595 19.852304 24.971891 20.236404 24.96907 20.638596C 24.966248 21.040787 25.125546 21.427162 25.410999 21.710501L 28.291 24.5905C 28.720131 25.018291 29.364498 25.145882 29.924271 24.913902C 30.484041 24.681921 30.849266 24.135935 30.849998 23.530001L 30.849998 22.150002L 33.6115 22.150002L 33.6115 38.349998C 33.6115 40.827999 35.633499 42.849998 38.1115 42.849998L 44.411499 42.849998C 45.239925 42.849998 45.911499 42.178425 45.911499 41.349998C 45.911499 40.521572 45.239925 39.849998 44.411499 39.849998L 44.1115 39.849998L 44.1115 34.150002L 44.411499 34.150002C 45.239925 34.150002 45.911499 33.478428 45.911499 32.650002C 45.911499 31.821573 45.239925 31.150002 44.411499 31.150002L 44.1115 31.150002L 44.1115 25.150002L 44.411499 25.150002C 45.239925 25.150002 45.911499 24.478428 45.911499 23.650002C 45.911499 22.821573 45.239925 22.150002 44.411499 22.150002L 36.6115 22.150002L 36.6115 17.65ZM 36.614502 38.349998L 36.614502 34.150002L 41.114502 34.150002L 41.114502 39.849998L 38.114502 39.849998C 37.2925 39.849998 36.614502 39.172001 36.614502 38.349998ZM 36.614502 31.150002L 41.114502 31.150002L 41.114502 25.150002L 36.614502 25.150002L 36.614502 31.150002Z"></path></g></g></g><g id="g-root-ic_chec_dfg91x136blsa-fill" data-item-order="999998704" transform="translate(206, 464)"><g id="ic_chec_dfg91x136blsa-fill" stroke="none" fill="#f366bb"><g><path d="M 32.702499 13.257999C 33.28944 12.69467 33.308578 11.762191 32.745251 11.17525C 32.181919 10.588309 31.249439 10.56917 30.662498 11.1325L 27.985001 13.702L 26.7955 12.592C 26.197914 12.061642 25.286465 12.104399 24.741154 12.688372C 24.195841 13.272345 24.215515 14.184583 24.7855 14.7445L 26.994999 16.806999C 27.566957 17.340351 28.456009 17.333765 29.02 16.792L 32.702499 13.257999ZM 20.102501 19.381001C 19.28957 19.381828 18.631001 20.041071 18.631001 20.854L 18.631001 43.804001C 18.631001 44.6185 19.291 45.277 20.104 45.277L 35.896 45.277C 36.710499 45.277 37.368999 44.616997 37.368999 43.8055L 37.368999 20.854C 37.368999 20.040485 36.709518 19.381001 35.896 19.381001L 20.104 19.381001ZM 34.423 34.873001L 34.423 29.929001L 21.5755 29.929001L 21.5755 34.873001L 34.4245 34.873001ZM 21.5755 37.819L 34.4245 37.819L 34.4245 42.3325L 21.573999 42.3325L 21.573999 37.817501ZM 34.4245 22.327L 34.4245 26.983L 21.573999 26.983L 21.573999 22.327L 34.423 22.327ZM 40.911999 27.629501C 40.098484 27.629501 39.439003 28.288984 39.439003 29.102501C 39.439003 29.916016 40.098484 30.5755 40.911999 30.5755L 42.679001 30.5755L 42.679001 33.5215L 40.911999 33.5215C 40.374809 33.504353 39.870922 33.781151 39.597252 34.243721C 39.323586 34.706295 39.323586 35.281204 39.597252 35.743778C 39.870922 36.206348 40.374809 36.48315 40.911999 36.466003L 42.679001 36.466L 42.679001 39.411999L 40.911999 39.411999C 40.098484 39.411999 39.439003 40.071487 39.439003 40.885002C 39.439003 41.698517 40.098484 42.358002 40.911999 42.358002L 42.679001 42.358002C 43.456001 42.358002 44.218002 42.092499 44.787998 41.521C 45.359501 40.951 45.625 40.188999 45.625 39.411999L 45.625 24.684999C 45.625 23.908001 45.359501 23.147501 44.787998 22.576C 44.218002 22.006001 43.456001 21.739 42.679001 21.739L 40.911999 21.739C 40.098484 21.739 39.439003 22.398485 39.439003 23.212002C 39.439003 24.025517 40.098484 24.684999 40.911999 24.684999L 42.679001 24.684999L 42.679001 27.631001L 40.911999 27.631001ZM 10.375 24.683498L 10.375 39.411999C 10.375 40.188999 10.6405 40.951 11.212 41.521C 11.782 42.092499 12.544 42.358002 13.321 42.358002L 15.088 42.358002C 15.901516 42.358002 16.561001 41.698517 16.561001 40.885002C 16.561001 40.071487 15.901516 39.411999 15.088 39.411999L 13.321 39.411999L 13.321 36.466L 15.088 36.466C 15.625191 36.48315 16.12908 36.206348 16.402746 35.743778C 16.676414 35.281204 16.676414 34.706295 16.402746 34.243721C 16.12908 33.781151 15.625191 33.504353 15.088 33.5215L 13.321 33.5215L 13.321 30.5755L 15.088 30.5755C 15.901516 30.5755 16.561001 29.916016 16.561001 29.102501C 16.561001 28.288984 15.901516 27.629501 15.088 27.629501L 13.321 27.629501L 13.321 24.683498L 15.088 24.683498C 15.901516 24.6835 16.561001 24.024017 16.561001 23.210501C 16.561001 22.396986 15.901516 21.737501 15.088 21.737501L 13.321 21.737499C 12.544 21.737499 11.782 22.003 11.212 22.574501C 10.6405 23.144499 10.375 23.9065 10.375 24.683498Z"></path></g></g></g><g id="g-root-ic_chai_dfg91x136bls5-fill" data-item-order="999998704" transform="translate(452, 392)"><g id="ic_chai_dfg91x136bls5-fill" stroke="none" fill="#ffe711"><g><path d="M 44.435501 13.6855C 45.00396 13.096931 44.995831 12.161373 44.417229 11.582772C 43.838627 11.004171 42.903069 10.996041 42.314499 11.5645L 39.197502 14.68C 36.970001 13.429 33.993999 13.7335 32.1325 15.595L 28.578999 19.15C 26.719 21.01 26.413 23.987499 27.664 26.213501L 26.213501 27.665501C 23.987499 26.413 21.011499 26.717501 19.1485 28.5805L 15.5965 32.1325C 13.735 33.993999 13.4305 36.970001 14.6815 39.197502L 11.5645 42.314499C 11.174565 42.691113 11.018181 43.248817 11.155455 43.773262C 11.292727 44.297707 11.702295 44.707272 12.226739 44.844543C 12.751184 44.981819 13.308888 44.825436 13.6855 44.435501L 16.8025 41.318501C 19.030001 42.5695 22.006001 42.264999 23.8675 40.4035L 27.421001 36.849998C 29.281 34.989998 29.587 32.012501 28.336 29.786499L 29.786499 28.334499C 32.012501 29.587 34.989998 29.282499 36.851498 27.4195L 40.4035 23.8675C 42.264999 22.006001 42.5695 19.030001 41.318501 16.8025L 44.435501 13.6855ZM 32.093498 26.0275C 33.023499 26.218 34.054001 25.974998 34.729 25.299999L 38.284 21.744999C 38.959 21.07 39.2005 20.041 39.011497 19.111L 38.696503 19.426001C 38.110802 20.012112 37.160866 20.012449 36.574753 19.42675C 35.98864 18.841053 35.988304 17.891113 36.574001 17.305L 36.889 16.99C 35.959 16.7995 34.928497 17.0425 34.253502 17.717501L 30.700001 21.271C 30.025002 21.946001 29.782 22.9765 29.9725 23.9065L 31.039 22.84C 31.415611 22.450066 31.973316 22.293682 32.497761 22.430954C 33.022205 22.568228 33.43177 22.977795 33.569046 23.502239C 33.706318 24.026684 33.549934 24.584389 33.16 24.961L 32.095001 26.0275ZM 23.9065 29.9725L 22.84 31.039C 22.450066 31.415611 22.293682 31.973316 22.430954 32.497761C 22.568228 33.022205 22.977795 33.43177 23.502239 33.569046C 24.026684 33.706318 24.584389 33.549934 24.961 33.16L 26.0275 32.095001C 26.218 33.025002 25.974998 34.054001 25.299999 34.729L 21.744999 38.284C 21.07 38.959 20.041 39.2005 19.111 39.011497L 19.426001 38.696503C 20.012112 38.110802 20.012449 37.160866 19.42675 36.574753C 18.841053 35.98864 17.891113 35.988304 17.305 36.574001L 16.99 36.889C 16.7995 35.959 17.0425 34.928497 17.717501 34.253502L 21.271 30.700001C 21.946001 30.025002 22.9765 29.782 23.9065 29.9725Z"></path></g></g></g><g id="g-root-ic_wech_8zmqxh136bkzz-fill" data-item-order="999998704" transform="translate(176, 194)"><g id="ic_wech_8zmqxh136bkzz-fill" stroke="none" fill="#4f91fc"><g><path d="M 28 11.5C 18.07 11.5 10 18.25 10 26.5C 10.077881 30.591999 11.968078 34.438328 15.16 36.999996C 15.260137 37.078426 15.311457 37.203873 15.295 37.329998L 14.65 43.255001C 14.602904 43.693748 14.813245 44.120274 15.190001 44.349998C 15.560181 44.587505 16.034819 44.587505 16.405001 44.350002C 16.57 44.23 20.275 41.709999 21.549999 40.779999C 21.646589 40.743069 21.75341 40.743069 21.85 40.779999C 23.866152 41.285568 25.925074 41.601936 28 41.725002C 37.93 41.724998 46 34.974998 46 26.724998C 46 18.475 37.93 11.5 28 11.5ZM 21.415001 26.905001C 20.254854 26.904985 19.209236 26.205315 18.766682 25.132896C 18.324127 24.060476 18.572006 22.827021 19.394503 22.008829C 20.217001 21.190638 21.45174 20.949238 22.521822 21.397415C 23.591904 21.845592 24.286076 22.894871 24.280001 24.055C 24.271748 25.631435 22.991455 26.905022 21.415001 26.905001ZM 34.435001 26.905001C 33.274857 26.904985 32.229237 26.205315 31.786682 25.132896C 31.344128 24.060476 31.592007 22.827021 32.414501 22.008829C 33.237 21.190638 34.471741 20.949238 35.541824 21.397415C 36.611904 21.845592 37.306076 22.894871 37.300003 24.055C 37.300011 24.813473 36.997684 25.540665 36.459961 26.075577C 35.922234 26.610489 35.193466 26.908993 34.435001 26.905001Z"></path></g></g></g><g id="g-root-ic_clou_dfg91x136bkzk-fill" data-item-order="999998704" transform="translate(440, 194)"><g id="ic_clou_dfg91x136bkzk-fill" stroke="none" fill="#1ac3fb"><g><path d="M 41.605 43.360001L 40.779999 43.360001L 40.779999 35.860001L 41.605 35.860001C 42.226322 35.860001 42.73 35.356323 42.73 34.735001C 42.73 34.113678 42.226322 33.610001 41.605 33.610001L 37.689999 33.610001C 37.06868 33.610001 36.565002 34.113678 36.565002 34.735001C 36.565002 35.356323 37.06868 35.860001 37.690002 35.860001L 38.5 35.860001L 38.5 43.360001L 37.66 43.360001C 37.038681 43.360001 36.535 43.863678 36.535 44.485001C 36.535 45.106323 37.038681 45.610001 37.66 45.610001L 41.574997 45.610001C 42.19632 45.610001 42.700001 45.106323 42.700001 44.485001C 42.700001 43.863678 42.19632 43.360001 41.575001 43.360001ZM 29.619999 33.564999L 26.619999 33.564999C 25.99868 33.564999 25.494999 34.06868 25.494999 34.690002L 25.494999 44.5C 25.494999 45.121323 25.99868 45.625 26.619999 45.625C 27.241322 45.625 27.744999 45.121323 27.744999 44.5L 27.744999 41.695L 29.559999 41.695C 31.804733 41.694572 33.624226 39.874737 33.624226 37.630001C 33.624226 35.385265 31.804733 33.56543 29.559999 33.564999ZM 29.619999 39.445L 27.805 39.445L 27.805 35.814999L 29.619999 35.814999C 30.622398 35.815002 31.435001 36.627602 31.435001 37.630001C 31.435001 38.632401 30.622398 39.445 29.620001 39.445ZM 21.549999 37C 21.277954 35.045231 19.59343 33.598598 17.619999 33.625C 15.652253 33.606201 13.976336 35.050961 13.705 36.999996L 12.595 44.380001C 12.503894 44.790928 12.649795 45.218338 12.973152 45.487785C 13.296509 45.757233 13.743228 45.823635 14.130978 45.659893C 14.518727 45.496155 14.78264 45.129662 14.815001 44.710003L 15.190001 42.235001L 20.065001 42.235001L 20.5 44.650002C 20.575512 45.203838 21.051064 45.615128 21.610001 45.610001L 21.775 45.610001C 22.387178 45.517441 22.809509 44.947632 22.720001 44.335003ZM 15.55 40L 16 37.27C 16.136116 36.435524 16.856997 35.822701 17.702499 35.822701C 18.548004 35.822701 19.268885 36.435524 19.404999 37.269997L 19.719999 40ZM 45.25 23.889999C 45.25132 21.853201 44.424187 19.903458 42.958717 18.488911C 41.493244 17.07436 39.51548 16.316675 37.48 16.389999C 35.432556 12.046786 30.699757 9.645798 25.985752 10.558871C 21.271746 11.471944 17.777708 15.466418 17.5 20.26C 15.846103 19.9224 14.12802 20.345388 12.819896 21.412237C 11.511772 22.479084 10.751905 24.077 10.75 25.764999C 10.75 31.48 16.75 31.389999 16.75 31.389999L 38.5 31.389999C 38.5 31.389999 45.25 30.505001 45.25 23.889999Z"></path></g></g></g><g id="g-root-ic_2_dfg91x136bkzq-fill" data-item-order="999998704" transform="translate(146, 254)"><g id="ic_2_dfg91x136bkzq-fill" stroke="none" fill="#b7b7b7"><g><path d="M 24.425499 32.030502L 11.125 32.030502C 10.503679 32.030502 10 32.53418 10 33.155502L 10 43.040501C 10 44.4715 11.161 45.6325 12.592 45.6325L 43.407997 45.6325C 44.839001 45.6325 46 44.4715 46 43.038998L 46 33.153999C 46 32.532681 45.496323 32.028999 44.875 32.028999L 31.574501 32.028999L 31.574501 35.9515C 31.518473 37.88533 29.934643 39.423939 28.000002 39.423939C 26.065359 39.423939 24.481529 37.88533 24.425501 35.9515L 24.425499 32.030502ZM 26.675499 35.9515L 26.675499 32.122002L 29.324501 32.122002L 29.324501 35.949997C 29.324686 36.681633 28.731634 37.274837 28 37.274837C 27.268366 37.274837 26.675314 36.681633 26.675499 35.949997ZM 19.57 12.928C 19.448298 12.906435 19.323786 12.946224 19.237143 13.034367C 19.150497 13.12251 19.11285 13.247686 19.136499 13.369L 20.0275 18.013L 18.52 20.237499L 16.2925 18.73L 15.4015 14.086C 15.378258 13.965199 15.297245 13.863482 15.184709 13.813798C 15.072173 13.764113 14.942425 13.772784 14.8375 13.837C 12.460736 15.293745 11.211209 18.05147 11.68305 20.79892C 12.154891 23.546368 14.252898 25.729195 16.9795 26.309498L 17.716 30.157L 23.116001 30.157L 22.1875 25.312C 24.50975 23.766306 25.655087 20.961079 25.078281 18.231739C 24.501472 15.502397 22.319071 13.400441 19.57 12.926499ZM 37.4245 30.1555L 32.240501 30.1555L 33.859001 21.467501L 27.884501 20.3545C 27.681276 20.316566 27.547085 20.121319 27.584499 19.917999L 28.1215 17.047001C 28.159433 16.843777 28.354681 16.709585 28.557999 16.747C 31.7215 17.3365 33.775002 15.9445 34.100498 14.1985C 34.138435 13.995276 34.333679 13.861086 34.536999 13.8985L 44.587002 15.7705C 44.684917 15.788702 44.771568 15.845107 44.827847 15.927276C 44.884125 16.009443 44.905411 16.110622 44.887001 16.2085L 43.639 22.909C 43.601067 23.112223 43.405819 23.246414 43.202499 23.209L 38.952999 22.417L 37.4245 30.1555Z"></path></g></g></g><g id="g-root-ic_circ_dfg91x136bkzt-fill" data-item-order="999998704" transform="translate(470, 254)"><g id="ic_circ_dfg91x136bkzt-fill" stroke="none" fill="#43dd93"><g><path d="M 27.528999 10.21C 27.643612 10.144265 27.784359 10.143696 27.8995 10.2085L 33.784 13.534C 33.901062 13.600251 33.973671 13.724123 33.974293 13.85863C 33.974911 13.993136 33.903446 14.117673 33.786999 14.184999L 27.9025 17.570499C 27.785826 17.637604 27.642136 17.637032 27.526001 17.569L 21.7285 14.1835C 21.613522 14.115785 21.543188 13.992073 21.543806 13.858638C 21.544422 13.725204 21.6159 13.602148 21.731501 13.535501L 27.528999 10.2085ZM 26.584 19.885L 26.584 19.875999C 26.582767 19.744518 26.51276 19.623289 26.3995 19.556499L 20.612499 16.15C 20.496733 16.082445 20.35371 16.081816 20.237352 16.14835C 20.120995 16.214884 20.048996 16.338465 20.0485 16.4725L 20.0485 22.637501C 20.0485 22.7605 20.1085 22.875999 20.209 22.945L 25.995998 26.955999C 26.109882 27.034616 26.257805 27.044127 26.380817 26.980738C 26.503826 26.917349 26.581932 26.791367 26.584 26.653L 26.584 19.885ZM 28.834 26.672501L 28.834 26.6605L 28.834 26.6485L 28.834 19.880501C 28.835861 19.748409 28.907085 19.627039 29.0215 19.561001L 34.938999 16.129C 35.055 16.06131 35.198341 16.060823 35.314796 16.127724C 35.431252 16.194624 35.503036 16.318695 35.503002 16.452999L 35.503002 22.6315C 35.502441 22.755438 35.440681 22.871096 35.338001 22.9405L 29.4205 26.981501C 29.305815 27.059021 29.157751 27.067057 29.035351 27.002403C 28.912949 26.937752 28.836121 26.810926 28.835501 26.672501ZM 27.775002 29.116001C 28.603428 29.116001 29.275002 29.787573 29.275002 30.616001L 29.275002 31.515999L 39.474998 31.515999C 40.364502 31.515999 41.167 31.890999 41.720497 32.563C 42.253002 33.208 42.474998 34.027 42.474998 34.837002L 42.474998 37.442501C 44.403313 38.389591 45.372765 40.584896 44.773781 42.648045C 44.174801 44.711197 42.180458 46.04604 40.044769 45.813248C 37.909081 45.580456 36.249146 43.847298 36.108719 41.703552C 35.968285 39.559807 37.387932 37.624912 39.475002 37.115501L 39.474998 34.837002C 39.478958 34.727951 39.462685 34.619118 39.427002 34.515999L 29.275002 34.515999L 29.275002 37.2505C 31.297787 37.979977 32.503727 40.05764 32.133858 42.175896C 31.763985 44.294151 29.925303 45.840187 27.775 45.841C 25.623802 45.842342 23.783302 44.296394 23.413214 42.177269C 23.043125 40.058147 24.250685 37.979877 26.275002 37.252003L 26.275002 34.515999L 17.023001 34.515999C 16.987349 34.619125 16.971073 34.727955 16.975 34.837002L 16.975 37.251999C 18.995543 37.982941 20.199348 40.059376 19.829691 42.176029C 19.460035 44.292686 17.623688 45.838177 15.474999 45.841C 13.322172 45.844383 11.479305 44.29789 11.108999 42.177147C 10.738693 40.056404 11.948418 37.976891 13.975 37.2505L 13.975 34.837002C 13.975 34.027 14.1985 33.209499 14.7295 32.563C 15.280735 31.891842 16.106537 31.5068 16.975 31.515999L 26.275002 31.515999L 26.275002 30.616001C 26.275002 29.787573 26.946573 29.116001 27.775002 29.116001Z"></path></g></g></g><g id="g-root-ic_spre_dfg91x136bls1-fill" data-item-order="999998704" transform="translate(164, 392)"><g id="ic_spre_dfg91x136bls1-fill" stroke="none" fill="#8769fd"><g><path d="M 10.135 11.635C 10.135 10.806573 10.806573 10.135 11.635 10.135L 21.816999 10.135C 22.645428 10.135 23.317001 10.806573 23.317001 11.635L 23.317001 44.364998C 23.317001 45.193428 22.645428 45.864998 21.816999 45.864998L 11.635 45.864998C 10.806573 45.864998 10.135 45.193428 10.135 44.364998L 10.135 11.635ZM 13.135 34.955498L 13.135 42.864998L 20.316999 42.864998L 20.316999 34.955498L 13.135 34.955498ZM 20.316999 31.9555L 13.135 31.9555L 13.135 24.0445L 20.316999 24.0445L 20.316999 31.9555ZM 20.316999 13.135L 20.316999 21.0445L 13.135 21.0445L 13.135 13.135L 20.316999 13.135ZM 31.273001 13.2805C 30.495983 13.2846 29.8671 13.913484 29.863001 14.6905L 29.862999 27.782499C 29.862999 28.553501 30.5005 29.192501 31.273001 29.192501L 41.454998 29.192501C 42.227501 29.192501 42.864998 28.553501 42.864998 27.782499L 42.864998 17.889999C 42.864998 17.511999 42.667 17.063499 42.277 16.743999L 38.077 13.558C 38.022476 13.516586 37.970856 13.47148 37.922501 13.423L 37.924 13.426C 37.867786 13.38962 37.805954 13.362759 37.740997 13.3465C 37.576824 13.301465 37.407234 13.279256 37.237 13.280499L 31.273001 13.2805ZM 26.862999 14.6905C 26.862999 12.2605 28.8445 10.2805 31.273001 10.2805L 37.237 10.2805C 37.932999 10.2805 39.103001 10.4305 39.956501 11.218L 44.107002 14.368L 44.137001 14.392C 45.193001 15.2365 45.864998 16.528 45.864998 17.889999L 45.864998 27.782499C 45.864998 30.211 43.885002 32.192501 41.454998 32.192501L 31.273001 32.192501C 28.839136 32.18837 26.867128 30.216362 26.862999 27.782499L 26.862999 14.6905ZM 33.310001 16.9C 32.481575 16.9 31.809999 17.571573 31.809999 18.4C 31.809999 19.228428 32.481575 19.9 33.310001 19.9L 37.584999 19.9C 38.413429 19.9 39.084999 19.228428 39.084999 18.4C 39.084999 17.571573 38.413429 16.9 37.584999 16.9L 33.310001 16.9ZM 31.809999 24.073C 31.809999 23.244572 32.481575 22.573 33.310001 22.573L 39.419502 22.573C 40.247929 22.573 40.919502 23.244572 40.919502 24.073C 40.919502 24.901428 40.247929 25.573 39.419502 25.573L 33.310001 25.573C 32.481575 25.573 31.809999 24.901428 31.809999 24.073ZM 40.919502 35.933498C 40.919502 35.105072 40.247929 34.433498 39.419502 34.433498C 38.591072 34.433498 37.919502 35.105072 37.919502 35.933498L 37.919502 37.819C 37.919502 38.59 37.281998 39.229 36.509499 39.229L 33.063999 39.229L 33.063999 37.09C 33.063869 36.483406 32.69841 35.9366 32.137981 35.704483C 31.577555 35.472366 30.932491 35.600639 30.5035 36.029503L 26.866001 39.665501C 26.584335 39.946854 26.426069 40.328636 26.426069 40.726753C 26.426069 41.124863 26.584335 41.506649 26.866001 41.787998L 30.5035 45.424C 30.932491 45.852859 31.577555 45.981133 32.137981 45.749016C 32.69841 45.516903 33.063869 44.970093 33.063999 44.363503L 33.063999 42.225998L 36.509499 42.225998C 38.939499 42.225998 40.919502 40.245998 40.919502 37.817501L 40.919502 35.931999Z"></path></g></g></g><g id="g-root-ic_pers_hv9r6d136bkzm-fill" data-item-order="999998704" transform="translate(476, 326)"><g id="ic_pers_hv9r6d136bkzm-fill" stroke="none" fill="#a6da37"><g><path d="M 36.419502 19.7185C 41.389 19.7185 45.419502 17.702499 45.419502 15.2185C 45.419502 12.733 41.389 10.7185 36.419502 10.7185C 31.4485 10.7185 27.4195 12.733 27.4195 15.2185C 27.4195 17.702499 31.4485 19.7185 36.419502 19.7185ZM 30.895 32.286999C 32.422001 32.873501 34.3405 33.216999 36.419502 33.216999C 41.369499 33.216999 45.419502 31.267 45.419502 28.716999L 45.419502 25.685499C 45.028 25.970501 44.605 26.23 44.163998 26.458C 42.114998 27.518499 39.371498 28.125999 36.419502 28.125999C 34.4305 28.125999 32.537498 27.849998 30.887501 27.346001C 31.2115 27.901001 31.397501 28.547501 31.397501 29.236C 31.397501 29.8465 31.252001 30.421001 30.993999 30.929501C 31.053116 31.384039 31.019436 31.845848 30.895 32.286999ZM 36.419502 21.967001C 39.178001 21.967001 41.786499 21.411999 43.788998 20.411499C 44.338001 20.136999 44.899002 19.796501 45.419502 19.386999L 45.419502 22.2055C 45.179497 22.946499 44.470001 23.743 43.119999 24.442001C 41.461002 25.3015 39.091 25.856501 36.419502 25.856501C 33.746502 25.856501 31.376501 25.3015 29.717501 24.442001C 28.3675 23.743 27.6565 22.946499 27.4195 22.2055L 27.4195 19.3855C 27.938499 19.796501 28.4995 20.136999 29.0485 20.411499C 31.051001 21.4135 33.6595 21.9685 36.419502 21.9685ZM 19.906 39.550003C 24.064001 39.550003 27.646 42.274002 28.9375 46.001499L 10.732 46.001499C 12.022 42.274002 15.7495 39.551498 19.906 39.551498ZM 12.6355 32.491001C 13.483 35.650002 16.33 38.0485 19.761999 38.0485C 23.258499 38.0485 26.128 35.7145 26.921501 32.491001L 23.762501 32.491001C 23.089001 34.017998 21.577 35.0485 19.761999 35.0485C 18.052 35.0485 16.5355 34.003002 15.817 32.491001L 12.637 32.491001ZM 19.306 19.2805C 20.085312 19.280863 20.734539 19.877941 20.799999 20.654501L 20.799999 24.214001C 20.800001 24.835321 21.30368 25.339001 21.925001 25.339001C 22.546322 25.339001 23.049999 24.835321 23.049999 24.214001L 23.049999 21.882999C 25.242462 23.031681 26.655426 25.262917 26.7565 27.736L 27.647501 27.736C 28.475927 27.736 29.147501 28.407574 29.147501 29.236C 29.147501 30.064426 28.475927 30.736 27.647501 30.736L 11.878 30.736C 11.049573 30.736 10.378 30.064426 10.378 29.236C 10.378 28.407574 11.049573 27.736 11.878 27.736L 12.7705 27.736C 12.973 24.7495 15.025 22.201 17.806 21.3715L 17.806 20.778999C 17.806 19.950573 18.477573 19.278999 19.306 19.278999Z"></path></g></g></g><g id="g-root-ic_1_dfg91x136bkzz-fill" data-item-order="999998704" transform="translate(140, 323)"><g id="ic_1_dfg91x136bkzz-fill" stroke="none" fill="#cb68f9"><g><path d="M 44.994999 28.974998L 44.994999 30.474998C 45.009602 31.199142 44.504684 31.830288 43.795002 31.974998L 41.935001 32.349998C 41.580536 33.84269 40.982529 35.266766 40.165001 36.565002L 41.23 38.154999C 41.60268 38.737915 41.52832 39.500107 41.050003 40L 38.994999 42.055C 38.487953 42.556786 37.697651 42.632053 37.105 42.235001L 35.5 41.154999C 34.211273 41.997311 32.79213 42.620724 31.300001 43L 31 44.785C 30.855289 45.494686 30.22414 45.999603 29.5 45.985001L 26.5 45.985001C 25.77586 45.999603 25.144711 45.494686 25 44.785L 24.700001 43C 23.20787 42.620724 21.788727 41.997311 20.5 41.154999L 18.91 42.220001C 18.317348 42.61705 17.527048 42.541786 17.02 42.040001L 14.95 40C 14.448215 39.49295 14.372948 38.702652 14.77 38.110001L 15.835 36.52C 15.017475 35.221764 14.419464 33.797688 14.065001 32.305L 12.205 31.93C 11.495316 31.78529 10.990396 31.15414 11.005 30.43L 11.005 28.93L 20.844999 28.93C 20.845722 32.881088 24.048912 36.083691 28 36.083691C 31.951088 36.083691 35.154278 32.881088 35.154999 28.93ZM 35.755001 15.715C 35.754646 17.637199 37.312798 19.195635 39.235001 19.195635C 41.157196 19.195635 42.715351 17.637199 42.715 15.715C 42.715351 13.792801 41.157196 12.234364 39.235001 12.234364C 37.312798 12.234364 35.754646 13.792801 35.755001 15.715M 13.3 15.715C 13.299648 17.637199 14.8578 19.195635 16.780001 19.195635C 18.702198 19.195635 20.260351 17.637199 20.26 15.715C 20.260351 13.792801 18.702198 12.234364 16.780001 12.234364C 14.8578 12.234364 13.299648 13.792801 13.299999 15.715M 20.200001 23.200001C 19.661781 22.85775 19.082104 22.585552 18.475 22.389999C 15.163224 21.45932 11.647681 22.940205 10 25.960001L 18.594999 25.960001C 19.039524 24.99028 19.57704 24.065954 20.200001 23.200001ZM 37.27 26.005001L 46 26.005001C 44.360359 22.966949 40.833675 21.471537 37.510002 22.405001C 36.891762 22.602892 36.301834 22.880209 35.755001 23.23C 36.343594 24.106848 36.850708 25.035721 37.27 26.005001ZM 35.605 26.005001C 34.381416 22.827755 31.400465 20.669949 28 20.5C 24.570774 20.651062 21.556206 22.817781 20.32 26.02ZM 23.485001 14.365C 23.485001 16.775723 25.439278 18.73 27.85 18.73C 30.260725 18.73 32.215 16.775723 32.215 14.365C 32.215 11.954277 30.260725 10 27.85 10C 25.439278 10 23.485001 11.954277 23.485001 14.365"></path></g></g></g><g id="g-root-tx__dfg91x136bkzy-fill" data-item-order="1000000000" transform="translate(92, 314)"><g id="tx__dfg91x136bkzy-fill" stroke="none" fill="#cb68f9"><g><text style="font: bold 11.7px Roboto, sans-serif; white-space: pre;" font-weight="bold" font-size="11.7px" font-family="Roboto, sans-serif"><tspan x="20.61" y="29" dominant-baseline="ideographic">服务</tspan></text></g></g></g><g id="g-root-tx_crud_hv9r6d136bkzn-fill" data-item-order="1000000000" transform="translate(524, 314)"><g id="tx_crud_hv9r6d136bkzn-fill" stroke="none" fill="#a6da37"><g><text style="font: bold 11.7px Roboto, sans-serif; white-space: pre;" font-weight="bold" font-size="11.7px" font-family="Roboto, sans-serif"><tspan x="12" y="29" dominant-baseline="ideographic">CRUD 操作</tspan></text></g></g></g><g id="g-root-tx__8zmqxh136blsc-fill" data-item-order="1000000000" transform="translate(20, 344)"><g id="tx__8zmqxh136blsc-fill" stroke="none" fill="#a555ca"><g><text style="font: 10px Roboto, sans-serif; white-space: pre;" font-size="10px" font-family="Roboto, sans-serif"><tspan x="16" y="21" dominant-baseline="ideographic">业务逻辑层，如用户认</tspan><tspan x="106" y="33" dominant-baseline="ideographic">证</tspan></text></g></g></g><g id="g-root-ic_mesh_dfg91x136bkzx-fill" data-item-order="1000000000" transform="translate(290, 289)"></g><g id="g-root-tx__dfg91x136bkzw-fill" data-item-order="1000000000" transform="translate(518, 272)"><g id="tx__dfg91x136bkzw-fill" stroke="none" fill="#3bc482"><g><text style="font: 10px Roboto, sans-serif; white-space: pre;" font-size="10px" font-family="Roboto, sans-serif"><tspan x="12" y="21" dominant-baseline="ideographic">核心功能模块，如配置</tspan><tspan x="12" y="33" dominant-baseline="ideographic">和数据库连接</tspan></text></g></g></g><g id="g-root-tx_crud_8zmqxh136blsf-fill" data-item-order="1000000000" transform="translate(524, 344)"><g id="tx_crud_8zmqxh136blsf-fill" stroke="none" fill="#91bb39"><g><text style="font: 10px Roboto, sans-serif; white-space: pre;" font-size="10px" font-family="Roboto, sans-serif"><tspan x="12" y="21" dominant-baseline="ideographic">直接面向数据库的 </tspan><tspan x="12" y="33" dominant-baseline="ideographic">CRUD 操作</tspan></text></g></g></g><g id="g-root-tx__dfg91x136bls0-fill" data-item-order="1000000000" transform="translate(116, 380)"><g id="tx__dfg91x136bls0-fill" stroke="none" fill="#8769fd"><g><text style="font: bold 11.7px Roboto, sans-serif; white-space: pre;" font-weight="bold" font-size="11.7px" font-family="Roboto, sans-serif"><tspan x="20.61" y="29" dominant-baseline="ideographic">模式</tspan></text></g></g></g><g id="g-root-tx__dfg91x136bkzv-fill" data-item-order="1000000000" transform="translate(26, 272)"><g id="tx__dfg91x136bkzv-fill" stroke="none" fill="#818181"><g><text style="font: 10px Roboto, sans-serif; white-space: pre;" font-size="10px" font-family="Roboto, sans-serif"><tspan x="16" y="21" dominant-baseline="ideographic">工具方法集合，如安全</tspan><tspan x="86" y="33" dominant-baseline="ideographic">和验证</tspan></text></g></g></g><g id="g-root-tx__dfg91x136bkzp-fill" data-item-order="1000000000" transform="translate(98, 242)"><g id="tx__dfg91x136bkzp-fill" stroke="none" fill="#b7b7b7"><g><text style="font: bold 11.7px Roboto, sans-serif; white-space: pre;" font-weight="bold" font-size="11.7px" font-family="Roboto, sans-serif"><tspan x="20.61" y="29" dominant-baseline="ideographic">工具</tspan></text></g></g></g><g id="g-root-tx__dfg91x136bkzo-fill" data-item-order="1000000000" transform="translate(488, 200)"><g id="tx__dfg91x136bkzo-fill" stroke="none" fill="#1fa9d7"><g><text style="font: 10px Roboto, sans-serif; white-space: pre;" font-size="10px" font-family="Roboto, sans-serif"><tspan x="12" y="21" dominant-baseline="ideographic">接口路由定义，按版本</tspan><tspan x="12" y="33" dominant-baseline="ideographic">组织</tspan></text></g></g></g><g id="g-root-tx_websocke_dfg91x136bkzl-fill" data-item-order="1000000000" transform="translate(56, 212)"><g id="tx_websocke_dfg91x136bkzl-fill" stroke="none" fill="#5080cd"><g><text style="font: 10px Roboto, sans-serif; white-space: pre;" font-size="10px" font-family="Roboto, sans-serif"><tspan x="13.45" y="21" dominant-baseline="ideographic">WebSocket 路由和逻辑</tspan></text></g></g></g><g id="g-root-tx__dfg91x136bls6-fill" data-item-order="1000000000" transform="translate(499, 380)"><g id="tx__dfg91x136bls6-fill" stroke="none" fill="#ffe711"><g><text style="font: bold 11.7px Roboto, sans-serif; white-space: pre;" font-weight="bold" font-size="11.7px" font-family="Roboto, sans-serif"><tspan x="12" y="29" dominant-baseline="ideographic">依赖项</tspan></text></g></g></g><g id="g-root-tx__dfg91x136bls7-fill" data-item-order="1000000000" transform="translate(44, 410)"><g id="tx__dfg91x136bls7-fill" stroke="none" fill="#7962d2"><g><text style="font: 10px Roboto, sans-serif; white-space: pre;" font-size="10px" font-family="Roboto, sans-serif"><tspan x="21.86" y="21" dominant-baseline="ideographic">请求/响应数据结构定</tspan><tspan x="106" y="33" dominant-baseline="ideographic">义</tspan></text></g></g></g><g id="g-root-tx_fastapi_dfg91x136bls8-fill" data-item-order="1000000000" transform="translate(499, 410)"><g id="tx_fastapi_dfg91x136bls8-fill" stroke="none" fill="#ddc916"><g><text style="font: 10px Roboto, sans-serif; white-space: pre;" font-size="10px" font-family="Roboto, sans-serif"><tspan x="12" y="21" dominant-baseline="ideographic">FastAPI 依赖项，如权</tspan><tspan x="12" y="33" dominant-baseline="ideographic">限和数据库</tspan></text></g></g></g><g id="g-root-tx__dfg91x136bls9-fill" data-item-order="1000000000" transform="translate(158, 464)"><g id="tx__dfg91x136bls9-fill" stroke="none" fill="#f366bb"><g><text style="font: bold 11.7px Roboto, sans-serif; white-space: pre;" font-weight="bold" font-size="11.7px" font-family="Roboto, sans-serif"><tspan x="20.61" y="29" dominant-baseline="ideographic">队列</tspan></text></g></g></g><g id="g-root-tx_api_8zmqxh136bkzy-fill" data-item-order="1000000000" transform="translate(488, 170)"><g id="tx_api_8zmqxh136bkzy-fill" stroke="none" fill="#1ac3fb"><g><text style="font: bold 11.7px Roboto, sans-serif; white-space: pre;" font-weight="bold" font-size="11.7px" font-family="Roboto, sans-serif"><tspan x="12" y="29" dominant-baseline="ideographic">API 层</tspan></text></g></g></g><g id="g-root-tx_websocke_8zmqxh136bkzx-fill" data-item-order="1000000000" transform="translate(104, 182)"><g id="tx_websocke_8zmqxh136bkzx-fill" stroke="none" fill="#4f91fc"><g><text style="font: bold 11.7px Roboto, sans-serif; white-space: pre;" font-weight="bold" font-size="11.7px" font-family="Roboto, sans-serif"><tspan x="21.23" y="29" dominant-baseline="ideographic">实时通讯</tspan></text></g></g></g><g id="g-root-tx__dfg91x136blsc-fill" data-item-order="1000000000" transform="translate(428, 464)"><g id="tx__dfg91x136blsc-fill" stroke="none" fill="#f79438"><g><text style="font: bold 11.7px Roboto, sans-serif; white-space: pre;" font-weight="bold" font-size="11.7px" font-family="Roboto, sans-serif"><tspan x="12" y="29" dominant-baseline="ideographic">中间件</tspan></text></g></g></g><g id="g-root-tx_celery_dfg91x136blsd-fill" data-item-order="1000000000" transform="translate(98, 494)"><g id="tx_celery_dfg91x136blsd-fill" stroke="none" fill="#dd57a8"><g><text style="font: 10px Roboto, sans-serif; white-space: pre;" font-size="10px" font-family="Roboto, sans-serif"><tspan x="13.77" y="21" dominant-baseline="ideographic">Celery 异步任务模块</tspan></text></g></g></g><g id="g-root-tx__hv9r6d136bls1-fill" data-item-order="1000000000" transform="translate(272, 560)"><g id="tx__hv9r6d136bls1-fill" stroke="none" fill="#e45752"><g><text style="font: 10px Roboto, sans-serif; white-space: pre;" font-size="10px" font-family="Roboto, sans-serif"><tspan x="14" y="21" dominant-baseline="ideographic">数据库模型定义，如用</tspan><tspan x="44" y="33" dominant-baseline="ideographic">户和权限</tspan></text></g></g></g><g id="g-root-tx__dfg91x136blsf-fill" data-item-order="1000000000" transform="translate(428, 494)"><g id="tx__dfg91x136blsf-fill" stroke="none" fill="#dc8331"><g><text style="font: 10px Roboto, sans-serif; white-space: pre;" font-size="10px" font-family="Roboto, sans-serif"><tspan x="12" y="21" dominant-baseline="ideographic">中间件，如日志记录</tspan></text></g></g></g><g id="g-root-tx__hv9r6d136bls0-fill" data-item-order="1000000000" transform="translate(308, 530)"><g id="tx__hv9r6d136bls0-fill" stroke="none" fill="#fb6762"><g><text style="font: bold 11.7px Roboto, sans-serif; white-space: pre;" font-weight="bold" font-size="11.7px" font-family="Roboto, sans-serif"><tspan x="16.3" y="29" dominant-baseline="ideographic">模型</tspan></text></g></g></g><g id="g-root-tx_fastapi_8zmqxh136bkzv-fill" data-item-order="1000000000" transform="translate(242, 38)"><g id="tx_fastapi_8zmqxh136bkzv-fill" stroke="none" fill="#f4f4f4"><g><text style="font: 20px Roboto, sans-serif; white-space: pre;" font-size="20px" font-family="Roboto, sans-serif"><tspan x="16.73" y="34" dominant-baseline="ideographic">FastAPI 项目架构</tspan></text></g></g></g><g id="g-root-tx__dfg91x136bkzu-fill" data-item-order="1000000000" transform="translate(518, 242)"><g id="tx__dfg91x136bkzu-fill" stroke="none" fill="#43dd93"><g><text style="font: bold 11.7px Roboto, sans-serif; white-space: pre;" font-weight="bold" font-size="11.7px" font-family="Roboto, sans-serif"><tspan x="12" y="29" dominant-baseline="ideographic">核心功能</tspan></text></g></g></g><g id="g-root-cp_0_g-0_8zmqxh136bkzw-stroke" data-item-order="999659306" transform="translate(240, 99)"><g id="cp_0_g-0_8zmqxh136bkzw-stroke" fill="none" stroke-linecap="round" stroke-linejoin="round" stroke-miterlimit="4" stroke="#2c2c2c" stroke-width="2"><g><path d="M 182 96L 182 140.61C 173.29 132.9 163.55 126.35 153 121.19L 153 97.06C 153 64.21 125.72 37.33 92.92 39.08C 62.92 40.69 39 65.6 39 96L 39 121.19C 28.45 126.35 18.71 132.9 10 140.61L 10 96C 10 48.5 48.5 10 96 10C 119.75 10 141.25 19.62 156.81 35.19C 172.38 50.75 182 72.25 182 96Z"></path></g></g><g id="cp_0_g-0_8zmqxh136bkzw-stroke" fill="none" stroke-linecap="round" stroke-linejoin="round" stroke-miterlimit="4" stroke="#2c2c2c" stroke-width="2"><g><path d="M 167 238C 167 277.2122 135.2122 309 96 309C 56.7878 309 25 277.2122 25 238C 25 198.7878 56.7878 167 96 167C 135.2122 167 167 198.7878 167 238Z"></path></g></g><g id="cp_0_g-0_8zmqxh136bkzw-stroke" fill="none" stroke-linecap="round" stroke-linejoin="round" stroke-miterlimit="4" stroke="#2c2c2c" stroke-width="2"><g><path d="M 156.399609 122.91L 128.989609 175.14C 119.129609 169.95 107.909609 167 95.999609 167C 84.089609 167 72.869609 169.95 63.009609 175.14L 35.599609 122.91C 53.659609 113.4 74.209609 108 95.999609 108C 117.789609 108 138.339609 113.4 156.399609 122.91Z"></path></g></g></g><g id="g-root-cp_1_g-1_dfg91x136bkzn-stroke" data-item-order="999659310" transform="translate(358.989990234375, 211.909912109375)"><g id="cp_1_g-1_dfg91x136bkzn-stroke" fill="none" stroke-linecap="round" stroke-linejoin="round" stroke-miterlimit="4" stroke="#2c2c2c" stroke-width="2"><g><path d="M 83.95 51.27L 35.43 84.76C 28.92 75.35 20.19 67.59 10 62.23L 37.41 10C 56.05 19.83 72.03 34.04 83.95 51.27Z"></path></g></g></g><g id="g-root-cp_2_g-2_dfg91x136bkzs-stroke" data-item-order="999659314" transform="translate(384.41998291015625, 253.179931640625)"><g id="cp_2_g-2_dfg91x136bkzs-stroke" fill="none" stroke-linecap="round" stroke-linejoin="round" stroke-miterlimit="4" stroke="#2c2c2c" stroke-width="2"><g><path d="M 80.63 68.15L 22.05 75.26C 20.64 63.56 16.39 52.73 10 43.49L 58.52 10C 70.24 26.92 78.05 46.74 80.63 68.15Z"></path></g></g></g><g id="g-root-cp_3_g-3_hv9r6d136bkzl-stroke" data-item-order="999659318" transform="translate(392.3900146484375, 311.330078125)"><g id="cp_3_g-3_hv9r6d136bkzl-stroke" fill="none" stroke-linecap="round" stroke-linejoin="round" stroke-miterlimit="4" stroke="#2c2c2c" stroke-width="2"><g><path d="M 73.61 25.67C 73.61 41.9 70.61 57.43 65.16 71.77L 10 50.85C 12.97 43.02 14.61 34.54 14.61 25.67C 14.61 22.77 14.42 19.92 14.08 17.11L 72.66 10C 73.28 15.14 73.61 20.37 73.61 25.67Z"></path></g></g></g><g id="g-root-cp_4_g-4_8zmqxh136blse-stroke" data-item-order="999659322" transform="translate(373.07000732421875, 352.179931640625)"><g id="cp_4_g-4_8zmqxh136blse-stroke" fill="none" stroke-linecap="round" stroke-linejoin="round" stroke-miterlimit="4" stroke="#2c2c2c" stroke-width="2"><g><path d="M 84.48 30.92C 76.94 50.73 64.68 68.24 49.09 82.07L 10 37.95C 18.52 30.4 25.21 20.83 29.32 10L 84.48 30.92Z"></path></g></g></g><g id="g-root-cp_5_g-5_dfg91x136bls3-stroke" data-item-order="999659326" transform="translate(342.989990234375, 380.131103515625)"><g id="cp_5_g-5_dfg91x136bls3-stroke" fill="none" stroke-linecap="round" stroke-linejoin="round" stroke-miterlimit="4" stroke="#2c2c2c" stroke-width="2"><g><path d="M 79.17 54.12C 63.67 67.87 44.87 77.98 24.12 83.1L 10 25.81C 21.35 23.02 31.62 17.51 40.08 10L 79.17 54.12Z"></path></g></g></g><g id="g-root-cp_6_g-6_dfg91x136bls4-stroke" data-item-order="999659330" transform="translate(294.8900146484375, 395.93896484375)"><g id="cp_6_g-6_dfg91x136bls4-stroke" fill="none" stroke-linecap="round" stroke-linejoin="round" stroke-miterlimit="4" stroke="#2c2c2c" stroke-width="2"><g><path d="M 72.22 67.29C 62.25 69.75 51.83 71.06 41.11 71.06C 30.39 71.06 19.97 69.75 10 67.29L 24.12 10C 29.56 11.34 35.25 12.06 41.11 12.06C 46.97 12.06 52.66 11.34 58.1 10L 72.22 67.29Z"></path></g></g></g><g id="g-root-cp_7_g-7_dfg91x136bls2-stroke" data-item-order="999659334" transform="translate(239.83999633789062, 380.131103515625)"><g id="cp_7_g-7_dfg91x136bls2-stroke" fill="none" stroke-linecap="round" stroke-linejoin="round" stroke-miterlimit="4" stroke="#2c2c2c" stroke-width="2"><g><path d="M 79.17 25.81L 65.05 83.1C 44.3 77.98 25.5 67.87 10 54.12L 49.09 10C 57.55 17.51 67.82 23.02 79.17 25.81Z"></path></g></g></g><g id="g-root-cp_8_g-8_8zmqxh136blsd-stroke" data-item-order="999659338" transform="translate(204.45001220703125, 352.179931640625)"><g id="cp_8_g-8_8zmqxh136blsd-stroke" fill="none" stroke-linecap="round" stroke-linejoin="round" stroke-miterlimit="4" stroke="#2c2c2c" stroke-width="2"><g><path d="M 84.48 37.95L 45.39 82.07C 29.8 68.24 17.54 50.73 10 30.92L 65.16 10C 69.27 20.83 75.96 30.4 84.48 37.95Z"></path></g></g></g><g id="g-root-cp_9_g-9_hv9r6d136bkzk-stroke" data-item-order="999659342" transform="translate(196, 311.330078125)"><g id="cp_9_g-9_hv9r6d136bkzk-stroke" fill="none" stroke-linecap="round" stroke-linejoin="round" stroke-miterlimit="4" stroke="#2c2c2c" stroke-width="2"><g><path d="M 73.61 50.85L 18.45 71.77C 13 57.43 10 41.9 10 25.67C 10 20.37 10.33 15.14 10.95 10L 69.53 17.11C 69.19 19.92 69 22.77 69 25.67C 69 34.54 70.64 43.02 73.61 50.85Z"></path></g></g></g><g id="g-root-cp_10_g-10_dfg91x136bkzr-stroke" data-item-order="999659346" transform="translate(196.95001220703125, 253.179931640625)"><g id="cp_10_g-10_dfg91x136bkzr-stroke" fill="none" stroke-linecap="round" stroke-linejoin="round" stroke-miterlimit="4" stroke="#2c2c2c" stroke-width="2"><g><path d="M 80.63 43.49C 74.24 52.73 69.99 63.56 68.58 75.26L 10 68.15C 12.58 46.74 20.39 26.92 32.11 10L 80.63 43.49Z"></path></g></g></g><g id="g-root-cp_11_g-11_dfg91x136bkzm-stroke" data-item-order="999659350" transform="translate(219.05999755859375, 211.909912109375)"><g id="cp_11_g-11_dfg91x136bkzm-stroke" fill="none" stroke-linecap="round" stroke-linejoin="round" stroke-miterlimit="4" stroke="#2c2c2c" stroke-width="2"><g><path d="M 83.95 62.23C 73.76 67.59 65.03 75.35 58.52 84.76L 10 51.27C 21.92 34.04 37.9 19.83 56.54 10L 83.95 62.23Z"></path></g></g></g><g id="g-root-ic_data_dfg91x136blse-stroke" data-item-order="999998704" transform="translate(308, 482)"></g><g id="g-root-ic_spre_dfg91x136blsb-stroke" data-item-order="999998704" transform="translate(380, 464)"></g><g id="g-root-ic_chec_dfg91x136blsa-stroke" data-item-order="999998704" transform="translate(206, 464)"></g><g id="g-root-ic_chai_dfg91x136bls5-stroke" data-item-order="999998704" transform="translate(452, 392)"></g><g id="g-root-ic_wech_8zmqxh136bkzz-stroke" data-item-order="999998704" transform="translate(176, 194)"></g><g id="g-root-ic_clou_dfg91x136bkzk-stroke" data-item-order="999998704" transform="translate(440, 194)"></g><g id="g-root-ic_2_dfg91x136bkzq-stroke" data-item-order="999998704" transform="translate(146, 254)"></g><g id="g-root-ic_circ_dfg91x136bkzt-stroke" data-item-order="999998704" transform="translate(470, 254)"></g><g id="g-root-ic_spre_dfg91x136bls1-stroke" data-item-order="999998704" transform="translate(164, 392)"></g><g id="g-root-ic_pers_hv9r6d136bkzm-stroke" data-item-order="999998704" transform="translate(476, 326)"></g><g id="g-root-ic_1_dfg91x136bkzz-stroke" data-item-order="999998704" transform="translate(140, 323)"></g><g id="g-root-tx__dfg91x136bkzy-stroke" data-item-order="1000000000" transform="translate(92, 314)"></g><g id="g-root-tx_crud_hv9r6d136bkzn-stroke" data-item-order="1000000000" transform="translate(524, 314)"></g><g id="g-root-tx__8zmqxh136blsc-stroke" data-item-order="1000000000" transform="translate(20, 344)"></g><g id="g-root-ic_mesh_dfg91x136bkzx-stroke" data-item-order="1000000000" transform="translate(290, 289)"><g id="ic_mesh_dfg91x136bkzx-stroke" fill="none" stroke-linecap="round" stroke-linejoin="round" stroke-miterlimit="4" stroke="#2c2c2c" stroke-width="2"><g><path d="M 19 66.100006C 21.485291 66.100006 23.5 64.085205 23.5 61.600002C 23.5 59.114502 21.485291 57.099998 19 57.099998C 16.514709 57.099998 14.5 59.114502 14.5 61.600002C 14.5 64.085205 16.514709 66.100006 19 66.100006ZM 19 57.099998L 19 51.099998M 10 10M 23.199699 63.699997L 26.49964 65.5M 46.000301 47.5C 48.4855 47.5 50.500301 45.485199 50.500301 43C 50.500301 40.514801 48.4855 38.5 46.000301 38.5C 43.514801 38.5 41.500301 40.514801 41.500301 43C 41.500301 45.485199 43.514801 47.5 46.000301 47.5ZM 46.000301 47.5L 46.000301 53.5M 10 10M 37.000179 38.5L 41.915802 41.102501M 10 10M 54.999699 38.5L 50.148399 41.228802M 46.000301 79.75C 48.4855 79.75 50.500301 77.735199 50.500301 75.25C 50.500301 72.764801 48.4855 70.75 46.000301 70.75C 43.514801 70.75 41.500301 72.764801 41.500301 75.25C 41.500301 77.735199 43.514801 79.75 46.000301 79.75ZM 46.000301 70.75L 46.000301 64.75M 10 10M 37.000179 70.75L 41.915802 73.352501M 10 10M 54.999699 70.75L 50.1367 73.485397M 73 66.100006C 75.485199 66.100006 77.5 64.085205 77.5 61.600002C 77.5 59.114502 75.485199 57.099998 73 57.099998C 70.514801 57.099998 68.5 59.114502 68.5 61.600002C 68.5 64.085205 70.514801 66.100006 73 66.100006ZM 73 57.099998L 73 51.099998M 10 10M 65.5 65.5L 69.039101 63.730598M 46.000301 21.25C 48.4855 21.25 50.500301 19.235291 50.500301 16.75C 50.500301 14.264709 48.4855 12.25 46.000301 12.25C 43.514801 12.25 41.500301 14.264709 41.500301 16.75C 41.500301 19.235291 43.514801 21.25 46.000301 21.25ZM 10 10M 37.000179 21.25021L 42.039101 18.878981M 10 10M 54.999699 21.250151L 50.031399 18.76582M 19 34.90015C 21.485291 34.90015 23.5 32.885441 23.5 30.40015C 23.5 27.91486 21.485291 25.90015 19 25.90015C 16.514709 25.90015 14.5 27.91486 14.5 30.40015C 14.5 32.885441 16.514709 34.90015 19 34.90015ZM 19 34.90015L 19 40.900002M 10 10M 23.03125 32.40844L 26.49964 34.300358M 10 10M 22.76173 27.939041L 26.49964 25.90015M 73 34.90015C 75.485199 34.90015 77.5 32.885441 77.5 30.40015C 77.5 27.91486 75.485199 25.90015 73 25.90015C 70.514801 25.90015 68.5 27.91486 68.5 30.40015C 68.5 32.885441 70.514801 34.90015 73 34.90015ZM 73 34.90015L 73 40.900002M 10 10M 65.5 34.30048L 69.039101 32.53093M 69.331902 27.816132L 65.5 25.90015"></path></g></g></g><g id="g-root-tx__dfg91x136bkzw-stroke" data-item-order="1000000000" transform="translate(518, 272)"></g><g id="g-root-tx_crud_8zmqxh136blsf-stroke" data-item-order="1000000000" transform="translate(524, 344)"></g><g id="g-root-tx__dfg91x136bls0-stroke" data-item-order="1000000000" transform="translate(116, 380)"></g><g id="g-root-tx__dfg91x136bkzv-stroke" data-item-order="1000000000" transform="translate(26, 272)"></g><g id="g-root-tx__dfg91x136bkzp-stroke" data-item-order="1000000000" transform="translate(98, 242)"></g><g id="g-root-tx__dfg91x136bkzo-stroke" data-item-order="1000000000" transform="translate(488, 200)"></g><g id="g-root-tx_websocke_dfg91x136bkzl-stroke" data-item-order="1000000000" transform="translate(56, 212)"></g><g id="g-root-tx__dfg91x136bls6-stroke" data-item-order="1000000000" transform="translate(499, 380)"></g><g id="g-root-tx__dfg91x136bls7-stroke" data-item-order="1000000000" transform="translate(44, 410)"></g><g id="g-root-tx_fastapi_dfg91x136bls8-stroke" data-item-order="1000000000" transform="translate(499, 410)"></g><g id="g-root-tx__dfg91x136bls9-stroke" data-item-order="1000000000" transform="translate(158, 464)"></g><g id="g-root-tx_api_8zmqxh136bkzy-stroke" data-item-order="1000000000" transform="translate(488, 170)"></g><g id="g-root-tx_websocke_8zmqxh136bkzx-stroke" data-item-order="1000000000" transform="translate(104, 182)"></g><g id="g-root-tx__dfg91x136blsc-stroke" data-item-order="1000000000" transform="translate(428, 464)"></g><g id="g-root-tx_celery_dfg91x136blsd-stroke" data-item-order="1000000000" transform="translate(98, 494)"></g><g id="g-root-tx__hv9r6d136bls1-stroke" data-item-order="1000000000" transform="translate(272, 560)"></g><g id="g-root-tx__dfg91x136blsf-stroke" data-item-order="1000000000" transform="translate(428, 494)"></g><g id="g-root-tx__hv9r6d136bls0-stroke" data-item-order="1000000000" transform="translate(308, 530)"></g><g id="g-root-tx_fastapi_8zmqxh136bkzv-stroke" data-item-order="1000000000" transform="translate(242, 38)"></g><g id="g-root-tx__dfg91x136bkzu-stroke" data-item-order="1000000000" transform="translate(518, 242)"></g></g></g></svg>
