<?xml version="1.0" encoding="utf-8" standalone="yes"?>
<!DOCTYPE svg PUBLIC "-//W3C//DTD SVG 1.1//EN" "http://www.w3.org/Graphics/SVG/1.1/DTD/svg11.dtd">
<svg width="648" height="684" viewBox="0 0 648 684" style="fill:none;stroke:none;fill-rule:evenodd;clip-rule:evenodd;stroke-linecap:round;stroke-linejoin:round;stroke-miterlimit:1.5;" version="1.1" xmlns="http://www.w3.org/2000/svg" xmlns:xlink="http://www.w3.org/1999/xlink"><style class="text-font-style fontImports" data-font-family="Roboto">@import url('https://fonts.googleapis.com/css2?family=Roboto:wght@400;700&amp;display=block');</style><g id="items" style="isolation: isolate"><g id="blend" style="mix-blend-mode: normal"><g id="g-root-cp_0_g-0_v3049z104yayp-fill" data-item-order="-367162" transform="translate(138, 251)"><g id="cp_0_g-0_v3049z104yayp-fill" stroke="none" fill="#e8e8e8"><g><path d="M 168.8778 236.7714C 168.8778 237.119 168.8805 237.5302 168.8859 238C 168.9255 241.4884 169.1112 248.2023 169.4282 256C 169.5073 257.9437 169.5944 259.9548 169.6896 262C 169.9461 267.5141 170.2603 273.2766 170.6279 278.6375C 170.659 279.0922 170.6907 279.5465 170.7228 280C 170.8662 282.0246 171.0186 284.0342 171.1754 286C 171.7327 292.99 172.3452 299.4248 172.8057 304L 129 304C 129 245.5419 58.3333 170.7336 10 155.4572L 10 37L 90 37L 113.6096 43L 113.6096 64L 133.4149 70.5L 133.4149 88L 138 88L 138 70.5L 138 64L 138 43L 138 37L 138 16L 138 10L 234 10L 234 16L 234 37L 234 43L 234 64L 234 70.5L 234 88L 238.5851 88L 238.5851 70.5L 258.3904 64L 258.3904 43L 282 37L 362 37L 362 155.4572C 313.6667 170.7336 243 245.5419 243 304L 200.4662 304C 200.9267 299.4248 201.5393 292.99 202.0966 286C 202.2533 284.0342 202.4057 282.0246 202.5491 280C 202.5813 279.5465 202.6129 279.0922 202.6441 278.6375C 203.0116 273.2766 203.3258 267.5141 203.5824 262C 203.6775 259.9548 203.7647 257.9437 203.8437 256C 204.1608 248.2023 204.3464 241.4884 204.3861 238C 204.3914 237.5302 204.3941 237.119 204.3941 236.7714M 168.8778 236.7714C 168.8778 235.0765 168.8778 233.5059 168.8778 232M 168.8778 236.7714L 168.8778 232M 168.8778 222.6827L 168.9673 219.0298L 169.1639 212.2429C 169.2069 210.9714 169.2592 209.5413 169.3235 208C 169.5455 202.6757 169.9103 196.0244 170.5256 190C 170.7323 187.9765 170.9673 186.0237 171.2346 184.2156C 169.5407 185.1847 165.4659 187.5929 161.9251 190C 158.821 192.1102 156.1273 194.2195 155.8079 195.3576C 155.4843 197.1482 157.8132 200.3383 160.2104 203.6219C 161.291 205.1021 162.3855 206.6013 163.2572 208C 163.4244 208.2683 163.5835 208.5329 163.7326 208.7929C 164.1798 209.2833 166.0695 210.3923 167.5157 211.2411C 168.0705 211.5667 168.7486 211.9998 169.0664 212.1992L 168.8778 219.1296C 168.4999 219.5388 166.9981 221.0436 165.7561 220.5601C 165.1243 220.3141 164.0247 219.2736 162.9929 218.1872C 161.6849 216.8101 160.4856 214.3592 160.4856 214.3592C 160.4856 214.3592 160.2689 214.2361 159.8882 214C 158.5836 213.1908 155.3532 211.0544 152.3232 208C 148.7591 204.4072 145.4724 199.5441 145.9235 194.0766C 146.0334 192.7441 146.4556 191.3805 147.1277 190C 148.0912 188.0209 149.5682 186.0069 151.3749 184C 156.1728 178.6702 163.2951 173.3896 169.2969 168.9398C 170.5406 168.0177 171.7363 167.1312 172.8531 166.2874C 172.9871 166.1862 173.1225 166.0906 173.2592 166C 174.1238 165.4269 175.0424 165.0487 176.0038 164.6529C 177.1087 164.198 178.2701 163.7198 179.4712 162.8957C 179.9536 162.5302 180.145 162.0461 180.3267 161.5868C 180.5401 161.0472 180.7399 160.5419 181.3819 160.3037C 181.7032 160.1844 182.1135 160.0711 182.5697 160L 182.5697 154.8891C 179.6198 153.5729 177.4598 150.8175 176.3634 147.3199C 176.2276 147.5458 176.0462 147.7257 175.8203 147.8445C 174.8219 148.3696 173.3319 147.5012 172.4924 145.905C 171.6529 144.3087 171.7818 142.589 172.7803 142.0639C 172.8264 142.0396 172.8735 142.0184 172.9216 142C 173.2414 141.8778 173.6024 141.8844 173.9719 142C 173.252 140.0196 172.8533 137.7212 172.8533 136.0978M 168.8778 222.6827C 168.8779 225.8776 168.8778 228.7917 168.8778 232M 168.8778 222.6827L 168.8778 232M 204.3941 236.7714C 204.3942 235.0674 204.3942 233.5009 204.3942 232M 204.3941 236.7714L 204.3942 232M 204.3941 222.6827C 204.3941 222.6827 204.3352 219.9707 204.1975 215.8959C 204.1771 215.2924 204.155 214.659 204.131 214C 204.0645 212.1662 203.984 210.1348 203.8883 208C 203.6465 202.6086 203.3073 196.5582 202.848 191.369C 202.8077 190.9137 202.7722 190.4571 202.743 190C 202.6146 187.9891 202.6083 185.9683 202.8529 184C 203.1132 181.9057 203.6576 179.8709 204.6414 177.9707C 206.2417 174.8796 208.6113 171.2785 211.9214 168.0226C 212.6153 167.3399 213.2794 166.6661 213.9117 166C 215.8727 163.9342 217.5277 161.9436 218.8197 160C 222.9225 153.8281 223.3644 148.1298 218.3189 142C 216.7165 140.0532 214.5605 138.0629 211.7926 136C 211.0669 135.4591 210.299 134.9132 209.4881 134.3619C 209.0478 134.0625 208.6248 133.7399 208.2086 133.4224C 207.2038 132.6559 206.1387 131.9551 205.0633 131.6484C 202.6384 130.4717 201.1352 125.3313 199.1016 125.3309C 197.8747 125.3307 196.2899 125.2738 194.9526 125.6076C 191.3343 123.3965 186.2854 123.2701 180.9482 126.4679C 175.1221 126.4679 172.8844 131.3447 172.8536 136C 172.8534 136.0209 172.8533 136.0418 172.8533 136.0627M 204.3941 222.6827C 204.3941 225.9478 204.3942 228.8273 204.3942 232M 204.3941 222.6827L 204.3942 232M 207.1427 139.4727C 207.5666 139.8184 206.7485 139.1354 207.1427 139.4727ZM 207.1427 139.4727C 206.7992 139.1927 206.2444 138.8577 205.6288 138.4861C 204.4155 137.7535 202.9661 136.8785 202.4327 136C 202.3569 135.8752 202.33 135.7356 202.2945 135.611C 201.7368 135.4103 201.0271 134.8346 200.2786 134.082C 200.366 134.7031 200.4132 135.3433 200.4174 136C 200.4176 136.0326 200.4177 136.0652 200.4177 136.0978C 200.4177 137.7194 200.0198 140.0146 199.3015 141.9935C 199.6639 141.884 200.0177 141.8801 200.3316 142C 200.3797 142.0184 200.4268 142.0396 200.4729 142.0639C 201.4713 142.589 201.6002 144.3087 200.7607 145.905C 199.9212 147.5012 198.4313 148.3696 197.4328 147.8445C 197.2135 147.7292 197.0361 147.5562 196.9018 147.3396C 195.8033 150.8283 193.6455 153.5761 190.7005 154.8896L 190.7005 160C 191.1569 160.0711 191.5674 160.1844 191.8888 160.3037C 192.5308 160.5419 192.7307 161.0472 192.9442 161.5868C 193.1259 162.0461 193.3175 162.5303 193.7999 162.8957C 194.9495 163.6845 195.4226 163.2787 196.1694 162.6379C 196.989 161.9347 198.1383 160.9487 200.8735 160.9487C 201.6896 160.6317 202.4658 160.3156 203.2029 160C 215.9984 154.5208 216.9957 149.1825 209.8818 142C 209.072 141.1824 208.1572 140.341 207.1427 139.4727ZM 172.8533 136.0978L 172.8533 136.0627M 172.8533 136.0978C 172.8533 136.0861 172.8533 136.0744 172.8533 136.0627M 185.171 236.7714L 188.101 236.7714C 188.101 236.7714 188.1337 237.2065 188.1915 238C 188.3921 240.7532 188.8948 247.821 189.381 256C 189.4969 257.9513 189.612 259.9658 189.7218 262C 190.03 267.7111 190.2966 273.5778 190.426 278.6375C 190.4376 279.0924 190.4486 279.5467 190.459 280C 190.5055 282.0292 190.5397 284.0383 190.5641 286C 190.6512 293.0246 190.6112 299.4415 190.5524 304L 182.7196 304C 182.6607 299.4415 182.6208 293.0246 182.7079 286C 182.7322 284.0383 182.7664 282.0292 182.8129 280C 182.8233 279.5467 182.8343 279.0924 182.8459 278.6375C 182.9753 273.5778 183.242 267.7111 183.5502 262C 183.66 259.9658 183.775 257.9513 183.891 256C 184.3772 247.821 184.8799 240.7532 185.0805 238C 185.1383 237.2065 185.171 236.7714 185.171 236.7714Z"></path></g></g></g><g id="g-root-cp_1_g-1_v3049z104yayq-fill" data-item-order="-367158" transform="translate(273.8819885253906, 365)"><g id="cp_1_g-1_v3049z104yayq-fill" stroke="none" fill="#4f91fc"><g><path d="M 46.964131 196.8902L 46.964131 201.9995C 46.964131 201.9995 42.869231 203.271 38.407531 201.9995C 35.675931 202.7246 32.370231 200.9995 32.370231 200.9995L 32.370231 199.8902C 32.370231 197.2632 34.904931 196.4532 36.672931 196.7156C 36.996531 196.7637 37.319731 196.8281 37.644831 196.8637C 37.563931 196.139 35.843831 180.6495 34.746031 164.6374C 33.621631 148.237 32.996131 128.0775 32.996031 122.7714C 32.995831 117.4654 33.085631 113.3766 33.085531 108.6821L 33.085531 105.0298C 33.085531 105.0298 31.306931 107.1179 29.874231 106.5601C 29.242431 106.3141 28.142931 105.2736 27.111031 104.1872C 25.803031 102.8101 24.603731 100.3592 24.603731 100.3592C 24.603731 100.3592 9.095231 91.5483 10.041631 80.0766C 10.727731 71.7606 23.576931 62.2339 33.415031 54.9398C 34.658831 54.0177 35.854431 53.1312 36.971331 52.2874C 37.952531 51.5461 39.008531 51.1113 40.121931 50.6529C 41.226831 50.198 42.388331 49.7198 43.589331 48.8957C 44.071731 48.5302 44.263231 48.0461 44.444831 47.5868C 44.658231 47.0472 44.858031 46.5419 45.500031 46.3037C 45.821331 46.1844 46.231731 46.0923 46.687831 46.0212L 46.687831 40.8891C 43.737931 39.5729 41.578031 36.8175 40.481531 33.3199C 40.345831 33.5458 40.164431 33.7257 39.938531 33.8445C 38.940031 34.3696 37.450131 33.5012 36.610631 31.905C 35.771131 30.3087 35.900031 28.589 36.898431 28.0639C 37.251131 27.8784 37.665031 27.8668 38.089931 27.9996C 37.370131 26.0193 36.971431 23.7211 36.971431 22.0978C 36.971431 17.4133 39.199431 12.4679 45.066431 12.4679C 50.378531 9.2851 55.405031 9.3954 59.019731 11.5766C 57.735431 11.8203 56.807731 12.6647 56.472531 13.6143C 55.973531 15.029 57.163331 16.5582 58.185031 16.419C 58.631831 16.3581 58.613031 15.4428 58.872331 14.9093C 59.055631 14.5323 59.409831 14.4735 59.921831 14.4735C 61.215831 16.5429 62.780531 18.4042 64.413831 20.2077C 64.756631 22.8255 64.315831 25.5245 63.419631 27.9935C 65.730931 27.2951 65.569231 30.5923 64.878831 31.905C 64.276031 33.0512 62.095031 35.0731 61.019931 33.3396C 59.921431 36.8283 57.763631 39.5762 54.818631 40.8897L 54.818631 46.0212C 55.275031 46.0923 55.685531 46.1844 56.006831 46.3037C 57.195331 46.7447 56.868831 48.101 57.918031 48.8957C 60.329331 50.5504 59.764131 46.9487 64.991631 46.9487C 81.587331 40.5034 81.701331 34.4084 71.260831 25.4728C 70.143931 24.5622 66.794331 23.0717 66.382231 21.6258C 65.824431 21.425 65.145231 20.8346 64.396731 20.082C 62.643331 18.3189 60.677131 15.5845 59.951131 14.4234C 59.439031 14.4234 58.998531 14.5226 58.815231 14.8995C 58.555831 15.4331 58.631031 16.3062 58.184231 16.3671C 57.162531 16.5063 56.061531 15.0195 56.560631 13.6049C 56.962731 12.4654 57.925931 11.8934 59.070831 11.6076C 60.408031 11.2738 61.992831 11.3307 63.219731 11.3309C 65.253331 11.3313 66.756631 16.4717 69.181531 17.6484C 70.256931 17.9551 71.321931 18.6559 72.326831 19.4224C 72.743031 19.7399 73.165931 20.0625 73.606231 20.3619C 91.304031 32.3948 88.461031 41.804 76.039531 54.0226C 72.729531 57.2785 70.359931 60.8796 68.759531 63.9707C 66.641031 68.0628 66.560031 72.7789 66.966231 77.369C 67.672631 85.3513 68.095131 95.3714 68.315631 101.8959C 68.453431 105.9708 68.512331 108.6827 68.512331 108.6827L 68.512331 113.3298L 68.512331 122.7714C 68.512131 128.0775 67.886631 148.237 66.762331 164.6374C 65.669131 180.5833 63.958631 196.011 63.864631 196.854C 64.246531 196.8057 64.626031 196.7201 65.007331 196.6679C 66.737231 196.4309 69.191431 197.3325 69.191431 199.8902L 69.191431 200.9995C 69.191431 200.9995 66.088231 202.6336 63.356631 201.9995C 58.986031 203.4531 54.544231 201.9995 54.544231 201.9995L 54.544231 196.8902C 54.544231 196.8902 54.968531 181.2307 54.544231 164.6374C 54.119831 148.0442 52.219131 122.7714 52.219131 122.7714L 49.289231 122.7714C 49.289231 122.7714 47.388431 148.0442 46.964131 164.6374C 46.539831 181.2307 46.964131 196.8902 46.964131 196.8902ZM 33.282131 98.2429C 33.523431 91.1037 34.059231 78.9649 35.352731 70.2156C 32.173931 72.0343 20.609831 78.9213 19.926131 81.3576C 19.602531 83.1482 21.931331 86.3383 24.328631 89.6219C 25.616531 91.3861 26.924131 93.1772 27.850831 94.7929C 28.298031 95.2833 30.187731 96.3923 31.633931 97.2412C 32.403831 97.693 33.048031 98.0711 33.282131 98.2429ZM 68.512331 122.7714C 68.512431 119.2482 68.512431 116.3128 68.512331 113.3298C 68.512331 111.8204 68.512331 110.2988 68.512331 108.6827M 71.260831 25.4728C 71.684731 25.8184 70.866631 25.1354 71.260831 25.4728Z"></path></g></g></g><g id="g-root-tx_pbac_qn6m5j104yayy-fill" data-item-order="0" transform="translate(284, 38)"><g id="tx_pbac_qn6m5j104yayy-fill" stroke="none" fill="#f4f4f4"><g><text style="font: 20px Roboto, sans-serif; white-space: pre;" font-size="20px" font-family="Roboto, sans-serif"><tspan x="14.63" y="34" dominant-baseline="ideographic">RBAC</tspan></text></g></g></g><g id="g-root-tx__qn6m5j104yaz0-fill" data-item-order="0" transform="translate(290, 110)"><g id="tx__qn6m5j104yaz0-fill" stroke="none" fill="#43dd93"><g><text style="font: bold 20px Roboto, sans-serif; white-space: pre;" font-weight="bold" font-size="20px" font-family="Roboto, sans-serif"><tspan x="13.9" y="34" dominant-baseline="ideographic">Role</tspan></text></g></g></g><g id="g-root-tx__qn6m5j104yayz-fill" data-item-order="0" transform="translate(98, 146)"><g id="tx__qn6m5j104yayz-fill" stroke="none" fill="#4f91fc"><g><text style="font: bold 20px Roboto, sans-serif; white-space: pre;" font-weight="bold" font-size="20px" font-family="Roboto, sans-serif"><tspan x="13.2" y="34" dominant-baseline="ideographic">User</tspan></text></g></g></g><g id="g-root-tx__qn6m5j104yaz2-fill" data-item-order="0" transform="translate(230, 146)"><g id="tx__qn6m5j104yaz2-fill" stroke="none" fill="#3bc482"><g><text style="font: 15px Roboto, sans-serif; white-space: pre;" font-size="15px" font-family="Roboto, sans-serif"><tspan x="13.76" y="28" dominant-baseline="ideographic">Define roles to organize </tspan><tspan x="36.93" y="46" dominant-baseline="ideographic">permissions and </tspan><tspan x="49.57" y="64" dominant-baseline="ideographic">simplify user </tspan><tspan x="51.1" y="82" dominant-baseline="ideographic">assignment.</tspan></text></g></g></g><g id="g-root-tx__qn6m5j104yaz3-fill" data-item-order="0" transform="translate(452, 146)"><g id="tx__qn6m5j104yaz3-fill" stroke="none" fill="#fb6762"><g><text style="font: bold 20px Roboto, sans-serif; white-space: pre;" font-weight="bold" font-size="20px" font-family="Roboto, sans-serif"><tspan x="13.07" y="34" dominant-baseline="ideographic">Permission</tspan></text></g></g></g><g id="g-root-tx__qn6m5j104yaz1-fill" data-item-order="0" transform="translate(38, 182)"><g id="tx__qn6m5j104yaz1-fill" stroke="none" fill="#5080cd"><g><text style="font: 15px Roboto, sans-serif; white-space: pre;" font-size="15px" font-family="Roboto, sans-serif"><tspan x="37.7" y="31" dominant-baseline="ideographic">Ensure users are </tspan><tspan x="14.29" y="49" dominant-baseline="ideographic">assigned to appropriate </tspan><tspan x="12.79" y="67" dominant-baseline="ideographic">roles for access control.</tspan></text></g></g></g><g id="g-root-tx__v3049z104yayo-fill" data-item-order="0" transform="translate(416, 182)"><g id="tx__v3049z104yayo-fill" stroke="none" fill="#e45752"><g><text style="font: 15px Roboto, sans-serif; white-space: pre;" font-size="15px" font-family="Roboto, sans-serif"><tspan x="17.88" y="31" dominant-baseline="ideographic">Establish permissions to </tspan><tspan x="16.22" y="49" dominant-baseline="ideographic">control access to system </tspan><tspan x="64.81" y="67" dominant-baseline="ideographic">resources.</tspan></text></g></g></g><g id="g-root-cp_0_g-0_v3049z104yayp-stroke" data-item-order="-367162" transform="translate(138, 251)"><g id="cp_0_g-0_v3049z104yayp-stroke" fill="none" stroke-linecap="round" stroke-linejoin="round" stroke-miterlimit="4" stroke="#2c2c2c" stroke-width="2"><g><path d="M 168.8778 236.7714C 168.8778 237.119 168.8805 237.5302 168.8859 238C 168.9255 241.4884 169.1112 248.2023 169.4282 256C 169.5073 257.9437 169.5944 259.9548 169.6896 262C 169.9461 267.5141 170.2603 273.2766 170.6279 278.6375C 170.659 279.0922 170.6907 279.5465 170.7228 280C 170.8662 282.0246 171.0186 284.0342 171.1754 286C 171.7327 292.99 172.3452 299.4248 172.8057 304L 129 304C 129 245.5419 58.3333 170.7336 10 155.4572L 10 37L 90 37L 113.6096 43L 113.6096 64L 133.4149 70.5L 133.4149 88L 138 88L 138 70.5L 138 64L 138 43L 138 37L 138 16L 138 10L 234 10L 234 16L 234 37L 234 43L 234 64L 234 70.5L 234 88L 238.5851 88L 238.5851 70.5L 258.3904 64L 258.3904 43L 282 37L 362 37L 362 155.4572C 313.6667 170.7336 243 245.5419 243 304L 200.4662 304C 200.9267 299.4248 201.5393 292.99 202.0966 286C 202.2533 284.0342 202.4057 282.0246 202.5491 280C 202.5813 279.5465 202.6129 279.0922 202.6441 278.6375C 203.0116 273.2766 203.3258 267.5141 203.5824 262C 203.6775 259.9548 203.7647 257.9437 203.8437 256C 204.1608 248.2023 204.3464 241.4884 204.3861 238C 204.3914 237.5302 204.3941 237.119 204.3941 236.7714M 168.8778 236.7714C 168.8778 235.0765 168.8778 233.5059 168.8778 232M 168.8778 236.7714L 168.8778 232M 168.8778 222.6827L 168.9673 219.0298L 169.1639 212.2429C 169.2069 210.9714 169.2592 209.5413 169.3235 208C 169.5455 202.6757 169.9103 196.0244 170.5256 190C 170.7323 187.9765 170.9673 186.0237 171.2346 184.2156C 169.5407 185.1847 165.4659 187.5929 161.9251 190C 158.821 192.1102 156.1273 194.2195 155.8079 195.3576C 155.4843 197.1482 157.8132 200.3383 160.2104 203.6219C 161.291 205.1021 162.3855 206.6013 163.2572 208C 163.4244 208.2683 163.5835 208.5329 163.7326 208.7929C 164.1798 209.2833 166.0695 210.3923 167.5157 211.2411C 168.0705 211.5667 168.7486 211.9998 169.0664 212.1992L 168.8778 219.1296C 168.4999 219.5388 166.9981 221.0436 165.7561 220.5601C 165.1243 220.3141 164.0247 219.2736 162.9929 218.1872C 161.6849 216.8101 160.4856 214.3592 160.4856 214.3592C 160.4856 214.3592 160.2689 214.2361 159.8882 214C 158.5836 213.1908 155.3532 211.0544 152.3232 208C 148.7591 204.4072 145.4724 199.5441 145.9235 194.0766C 146.0334 192.7441 146.4556 191.3805 147.1277 190C 148.0912 188.0209 149.5682 186.0069 151.3749 184C 156.1728 178.6702 163.2951 173.3896 169.2969 168.9398C 170.5406 168.0177 171.7363 167.1312 172.8531 166.2874C 172.9871 166.1862 173.1225 166.0906 173.2592 166C 174.1238 165.4269 175.0424 165.0487 176.0038 164.6529C 177.1087 164.198 178.2701 163.7198 179.4712 162.8957C 179.9536 162.5302 180.145 162.0461 180.3267 161.5868C 180.5401 161.0472 180.7399 160.5419 181.3819 160.3037C 181.7032 160.1844 182.1135 160.0711 182.5697 160L 182.5697 154.8891C 179.6198 153.5729 177.4598 150.8175 176.3634 147.3199C 176.2276 147.5458 176.0462 147.7257 175.8203 147.8445C 174.8219 148.3696 173.3319 147.5012 172.4924 145.905C 171.6529 144.3087 171.7818 142.589 172.7803 142.0639C 172.8264 142.0396 172.8735 142.0184 172.9216 142C 173.2414 141.8778 173.6024 141.8844 173.9719 142C 173.252 140.0196 172.8533 137.7212 172.8533 136.0978M 168.8778 222.6827C 168.8779 225.8776 168.8778 228.7917 168.8778 232M 168.8778 222.6827L 168.8778 232M 204.3941 236.7714C 204.3942 235.0674 204.3942 233.5009 204.3942 232M 204.3941 236.7714L 204.3942 232M 204.3941 222.6827C 204.3941 222.6827 204.3352 219.9707 204.1975 215.8959C 204.1771 215.2924 204.155 214.659 204.131 214C 204.0645 212.1662 203.984 210.1348 203.8883 208C 203.6465 202.6086 203.3073 196.5582 202.848 191.369C 202.8077 190.9137 202.7722 190.4571 202.743 190C 202.6146 187.9891 202.6083 185.9683 202.8529 184C 203.1132 181.9057 203.6576 179.8709 204.6414 177.9707C 206.2417 174.8796 208.6113 171.2785 211.9214 168.0226C 212.6153 167.3399 213.2794 166.6661 213.9117 166C 215.8727 163.9342 217.5277 161.9436 218.8197 160C 222.9225 153.8281 223.3644 148.1298 218.3189 142C 216.7165 140.0532 214.5605 138.0629 211.7926 136C 211.0669 135.4591 210.299 134.9132 209.4881 134.3619C 209.0478 134.0625 208.6248 133.7399 208.2086 133.4224C 207.2038 132.6559 206.1387 131.9551 205.0633 131.6484C 202.6384 130.4717 201.1352 125.3313 199.1016 125.3309C 197.8747 125.3307 196.2899 125.2738 194.9526 125.6076C 191.3343 123.3965 186.2854 123.2701 180.9482 126.4679C 175.1221 126.4679 172.8844 131.3447 172.8536 136C 172.8534 136.0209 172.8533 136.0418 172.8533 136.0627M 204.3941 222.6827C 204.3941 225.9478 204.3942 228.8273 204.3942 232M 204.3941 222.6827L 204.3942 232M 207.1427 139.4727C 207.5666 139.8184 206.7485 139.1354 207.1427 139.4727ZM 207.1427 139.4727C 206.7992 139.1927 206.2444 138.8577 205.6288 138.4861C 204.4155 137.7535 202.9661 136.8785 202.4327 136C 202.3569 135.8752 202.33 135.7356 202.2945 135.611C 201.7368 135.4103 201.0271 134.8346 200.2786 134.082C 200.366 134.7031 200.4132 135.3433 200.4174 136C 200.4176 136.0326 200.4177 136.0652 200.4177 136.0978C 200.4177 137.7194 200.0198 140.0146 199.3015 141.9935C 199.6639 141.884 200.0177 141.8801 200.3316 142C 200.3797 142.0184 200.4268 142.0396 200.4729 142.0639C 201.4713 142.589 201.6002 144.3087 200.7607 145.905C 199.9212 147.5012 198.4313 148.3696 197.4328 147.8445C 197.2135 147.7292 197.0361 147.5562 196.9018 147.3396C 195.8033 150.8283 193.6455 153.5761 190.7005 154.8896L 190.7005 160C 191.1569 160.0711 191.5674 160.1844 191.8888 160.3037C 192.5308 160.5419 192.7307 161.0472 192.9442 161.5868C 193.1259 162.0461 193.3175 162.5303 193.7999 162.8957C 194.9495 163.6845 195.4226 163.2787 196.1694 162.6379C 196.989 161.9347 198.1383 160.9487 200.8735 160.9487C 201.6896 160.6317 202.4658 160.3156 203.2029 160C 215.9984 154.5208 216.9957 149.1825 209.8818 142C 209.072 141.1824 208.1572 140.341 207.1427 139.4727ZM 172.8533 136.0978L 172.8533 136.0627M 172.8533 136.0978C 172.8533 136.0861 172.8533 136.0744 172.8533 136.0627M 185.171 236.7714L 188.101 236.7714C 188.101 236.7714 188.1337 237.2065 188.1915 238C 188.3921 240.7532 188.8948 247.821 189.381 256C 189.4969 257.9513 189.612 259.9658 189.7218 262C 190.03 267.7111 190.2966 273.5778 190.426 278.6375C 190.4376 279.0924 190.4486 279.5467 190.459 280C 190.5055 282.0292 190.5397 284.0383 190.5641 286C 190.6512 293.0246 190.6112 299.4415 190.5524 304L 182.7196 304C 182.6607 299.4415 182.6208 293.0246 182.7079 286C 182.7322 284.0383 182.7664 282.0292 182.8129 280C 182.8233 279.5467 182.8343 279.0924 182.8459 278.6375C 182.9753 273.5778 183.242 267.7111 183.5502 262C 183.66 259.9658 183.775 257.9513 183.891 256C 184.3772 247.821 184.8799 240.7532 185.0805 238C 185.1383 237.2065 185.171 236.7714 185.171 236.7714ZM 129 304L 129 286L 126.2459 280L 126.2459 262L 122 256L 122 238L 116.389 232L 116.389 214L 109.5228 208L 109.5228 190L 101.4098 184L 101.4098 166L 92 160L 92 142L 81.1427 136L 81.1427 118L 68.5221 112L 68.5221 94L 53.4149 88L 53.4149 70.5L 33.6096 64L 33.6096 43L 10 37M 243 304L 243 286L 245.7541 280L 245.7541 262L 250 256L 250 238L 255.6111 232L 255.6111 214L 262.4772 208L 262.4772 190L 270.5902 184L 270.5902 166L 280 160L 280 142L 290.8574 136L 290.8574 118L 303.4779 112L 303.4779 94L 318.5851 88L 318.5851 70.5L 338.3904 64L 338.3904 43L 362 37M 129 304L 172.8057 304M 113.6096 43L 33.6096 43M 113.6096 64L 33.6096 64M 133.4149 70.5L 53.4149 70.5M 90 37L 10 37M 122 256L 169.4282 256M 116.389 232L 168.8778 232M 109.5228 208L 152.3232 208M 101.4098 184L 151.3749 184M 92 160L 182.5697 160M 81.1427 136L 172.8536 136M 68.5221 112L 303.4779 112M 138 64L 234 64M 138 43L 234 43M 138 16L 234 16M 138 10L 234 10M 53.4149 88L 133.4149 88L 138 88L 234 88L 238.5851 88L 318.5851 88M 68.5221 94L 303.4779 94M 81.1427 118L 290.8574 118M 92 142L 172.9216 142M 101.4098 166L 173.2592 166M 109.5228 190L 147.1277 190M 116.389 214L 159.8882 214M 122 238L 168.8859 238M 126.2459 262L 169.6896 262M 126.2459 280L 170.7228 280M 129 286L 171.1754 286M 138 70.5L 234 70.5M 138 37L 234 37M 243 304L 200.4662 304M 258.3904 43L 338.3904 43M 258.3904 64L 338.3904 64M 238.5851 70.5L 318.5851 70.5M 282 37L 362 37M 250 256L 203.8437 256M 255.6111 232L 204.3942 232M 262.4772 208L 203.8883 208M 270.5902 184L 202.8529 184M 280 160L 218.8197 160M 290.8574 136L 211.7926 136M 280 142L 218.3189 142M 270.5902 166L 213.9117 166M 262.4772 190L 202.743 190M 255.6111 214L 204.131 214M 250 238L 204.3861 238M 245.7541 262L 203.5824 262M 245.7541 280L 202.5491 280M 243 286L 202.0966 286M 190.7005 160L 203.2029 160M 182.7196 304L 190.5524 304M 182.7079 286L 190.5641 286M 190.459 280L 182.8129 280M 189.7218 262L 183.5502 262M 183.891 256L 189.381 256M 188.1915 238L 185.0805 238M 169.3235 208L 163.2572 208M 161.9251 190L 170.5256 190M 200.4174 136L 202.4327 136M 209.8818 142L 200.3316 142"></path></g></g></g><g id="g-root-cp_1_g-1_v3049z104yayq-stroke" data-item-order="-367158" transform="translate(273.8819885253906, 365)"><g id="cp_1_g-1_v3049z104yayq-stroke" fill="none" stroke-linecap="round" stroke-linejoin="round" stroke-miterlimit="4" stroke="#2c2c2c" stroke-width="2"><g><path d="M 46.964131 196.8902L 46.964131 201.9995C 46.964131 201.9995 42.869231 203.271 38.407531 201.9995C 35.675931 202.7246 32.370231 200.9995 32.370231 200.9995L 32.370231 199.8902C 32.370231 197.2632 34.904931 196.4532 36.672931 196.7156C 36.996531 196.7637 37.319731 196.8281 37.644831 196.8637C 37.563931 196.139 35.843831 180.6495 34.746031 164.6374C 33.621631 148.237 32.996131 128.0775 32.996031 122.7714C 32.995831 117.4654 33.085631 113.3766 33.085531 108.6821L 33.085531 105.0298C 33.085531 105.0298 31.306931 107.1179 29.874231 106.5601C 29.242431 106.3141 28.142931 105.2736 27.111031 104.1872C 25.803031 102.8101 24.603731 100.3592 24.603731 100.3592C 24.603731 100.3592 9.095231 91.5483 10.041631 80.0766C 10.727731 71.7606 23.576931 62.2339 33.415031 54.9398C 34.658831 54.0177 35.854431 53.1312 36.971331 52.2874C 37.952531 51.5461 39.008531 51.1113 40.121931 50.6529C 41.226831 50.198 42.388331 49.7198 43.589331 48.8957C 44.071731 48.5302 44.263231 48.0461 44.444831 47.5868C 44.658231 47.0472 44.858031 46.5419 45.500031 46.3037C 45.821331 46.1844 46.231731 46.0923 46.687831 46.0212L 46.687831 40.8891C 43.737931 39.5729 41.578031 36.8175 40.481531 33.3199C 40.345831 33.5458 40.164431 33.7257 39.938531 33.8445C 38.940031 34.3696 37.450131 33.5012 36.610631 31.905C 35.771131 30.3087 35.900031 28.589 36.898431 28.0639C 37.251131 27.8784 37.665031 27.8668 38.089931 27.9996C 37.370131 26.0193 36.971431 23.7211 36.971431 22.0978C 36.971431 17.4133 39.199431 12.4679 45.066431 12.4679C 50.378531 9.2851 55.405031 9.3954 59.019731 11.5766C 57.735431 11.8203 56.807731 12.6647 56.472531 13.6143C 55.973531 15.029 57.163331 16.5582 58.185031 16.419C 58.631831 16.3581 58.613031 15.4428 58.872331 14.9093C 59.055631 14.5323 59.409831 14.4735 59.921831 14.4735C 61.215831 16.5429 62.780531 18.4042 64.413831 20.2077C 64.756631 22.8255 64.315831 25.5245 63.419631 27.9935C 65.730931 27.2951 65.569231 30.5923 64.878831 31.905C 64.276031 33.0512 62.095031 35.0731 61.019931 33.3396C 59.921431 36.8283 57.763631 39.5762 54.818631 40.8897L 54.818631 46.0212C 55.275031 46.0923 55.685531 46.1844 56.006831 46.3037C 57.195331 46.7447 56.868831 48.101 57.918031 48.8957C 60.329331 50.5504 59.764131 46.9487 64.991631 46.9487C 81.587331 40.5034 81.701331 34.4084 71.260831 25.4728C 70.143931 24.5622 66.794331 23.0717 66.382231 21.6258C 65.824431 21.425 65.145231 20.8346 64.396731 20.082C 62.643331 18.3189 60.677131 15.5845 59.951131 14.4234C 59.439031 14.4234 58.998531 14.5226 58.815231 14.8995C 58.555831 15.4331 58.631031 16.3062 58.184231 16.3671C 57.162531 16.5063 56.061531 15.0195 56.560631 13.6049C 56.962731 12.4654 57.925931 11.8934 59.070831 11.6076C 60.408031 11.2738 61.992831 11.3307 63.219731 11.3309C 65.253331 11.3313 66.756631 16.4717 69.181531 17.6484C 70.256931 17.9551 71.321931 18.6559 72.326831 19.4224C 72.743031 19.7399 73.165931 20.0625 73.606231 20.3619C 91.304031 32.3948 88.461031 41.804 76.039531 54.0226C 72.729531 57.2785 70.359931 60.8796 68.759531 63.9707C 66.641031 68.0628 66.560031 72.7789 66.966231 77.369C 67.672631 85.3513 68.095131 95.3714 68.315631 101.8959C 68.453431 105.9708 68.512331 108.6827 68.512331 108.6827L 68.512331 113.3298L 68.512331 122.7714C 68.512131 128.0775 67.886631 148.237 66.762331 164.6374C 65.669131 180.5833 63.958631 196.011 63.864631 196.854C 64.246531 196.8057 64.626031 196.7201 65.007331 196.6679C 66.737231 196.4309 69.191431 197.3325 69.191431 199.8902L 69.191431 200.9995C 69.191431 200.9995 66.088231 202.6336 63.356631 201.9995C 58.986031 203.4531 54.544231 201.9995 54.544231 201.9995L 54.544231 196.8902C 54.544231 196.8902 54.968531 181.2307 54.544231 164.6374C 54.119831 148.0442 52.219131 122.7714 52.219131 122.7714L 49.289231 122.7714C 49.289231 122.7714 47.388431 148.0442 46.964131 164.6374C 46.539831 181.2307 46.964131 196.8902 46.964131 196.8902ZM 33.282131 98.2429C 33.523431 91.1037 34.059231 78.9649 35.352731 70.2156C 32.173931 72.0343 20.609831 78.9213 19.926131 81.3576C 19.602531 83.1482 21.931331 86.3383 24.328631 89.6219C 25.616531 91.3861 26.924131 93.1772 27.850831 94.7929C 28.298031 95.2833 30.187731 96.3923 31.633931 97.2412C 32.403831 97.693 33.048031 98.0711 33.282131 98.2429ZM 68.512331 122.7714C 68.512431 119.2482 68.512431 116.3128 68.512331 113.3298C 68.512331 111.8204 68.512331 110.2988 68.512331 108.6827M 71.260831 25.4728C 71.684731 25.8184 70.866631 25.1354 71.260831 25.4728ZM 46.964435 196.890022L 37.648035 196.890022M 41.142835 122.771222C 46.154035 124.042022 49.289435 122.771222 49.289435 122.771222M 54.544435 196.890022L 63.860835 196.890022M 60.366035 122.771222C 55.354835 124.042022 52.219435 122.771222 52.219435 122.771222M 32.996235 108.682522L 68.512535 108.682522L 33.085735 108.681922M 43.589635 48.895422L 57.918335 48.895422M 54.818935 46.021022C 53.498635 45.815322 51.794435 45.785922 50.753335 45.785922C 49.712235 45.785922 48.008235 45.815322 46.688135 46.021022M 33.282435 98.242622C 33.144635 102.317922 33.085735 105.029622 33.085735 105.029622M 27.851035 94.792722L 24.604035 100.359022M 35.353035 70.215422L 35.757235 67.481522M 66.412935 21.610822C 67.139535 20.629922 69.181835 17.648222 69.181835 17.648222M 63.419935 27.993222C 62.908635 29.401622 62.235135 30.649722 61.427135 31.380922C 60.402435 34.571822 58.993635 37.250122 57.476735 37.845622C 55.488035 38.626222 53.195135 39.045822 50.753935 39.045822C 48.312735 39.045822 46.019835 38.626222 44.031135 37.845622C 42.514235 37.250122 41.199935 34.595222 40.080735 31.380922C 39.274035 30.650822 38.601235 29.405222 38.090235 27.999422M 64.397135 20.081822C 62.643735 18.318722 60.677135 15.584522 59.951135 14.423422C 59.439135 14.423422 58.998535 14.522622 58.815235 14.899522C 58.555835 15.433022 58.631035 16.306122 58.184235 16.367022C 57.162535 16.506322 56.061535 15.019522 56.560635 13.604822C 56.962735 12.465422 57.926235 11.893222 59.071035 11.607422"></path></g></g></g><g id="g-root-tx_pbac_qn6m5j104yayy-stroke" data-item-order="0" transform="translate(284, 38)"></g><g id="g-root-tx__qn6m5j104yaz0-stroke" data-item-order="0" transform="translate(290, 110)"></g><g id="g-root-tx__qn6m5j104yayz-stroke" data-item-order="0" transform="translate(98, 146)"></g><g id="g-root-tx__qn6m5j104yaz2-stroke" data-item-order="0" transform="translate(230, 146)"></g><g id="g-root-tx__qn6m5j104yaz3-stroke" data-item-order="0" transform="translate(452, 146)"></g><g id="g-root-tx__qn6m5j104yaz1-stroke" data-item-order="0" transform="translate(38, 182)"></g><g id="g-root-tx__v3049z104yayo-stroke" data-item-order="0" transform="translate(416, 182)"></g></g></g></svg>
